<svg width="598" height="392" viewBox="0 0 598 392" fill="none" xmlns="http://www.w3.org/2000/svg">
<path d="M520.247 279.31C518.399 269.791 500.705 268.206 500.705 268.206C500.705 268.206 511.043 250.965 503.711 243.157C496.379 235.349 479.531 253.687 479.531 253.687C479.531 253.687 473.968 242.1 465.694 253.687C465.694 253.687 451.907 243.158 439.984 248.57C431.468 252.435 432.723 262.645 434.136 268.167H199.981C199.783 267.757 199.537 267.361 199.227 266.987C191.318 257.441 168.378 262.355 168.378 262.355C168.378 262.355 177.959 238.696 162.161 231.525C146.362 224.355 128.095 238.305 128.095 238.305C117.132 222.952 109.762 238.305 109.762 238.305C109.762 238.305 87.4385 214.008 77.7235 224.353C68.0095 234.698 81.7065 257.542 81.7065 257.542C81.7065 257.542 58.2625 259.642 55.8145 272.254C53.3665 284.867 96.3755 297.962 96.3755 297.962L489.635 298.712C489.635 298.712 522.095 288.829 520.247 279.31Z" fill="#424242"/>
<path d="M118.01 294.25C110.944 274.22 100.201 255.494 86.4775 239.284" stroke="#E57E55" stroke-width="0.9971" stroke-miterlimit="10" stroke-linecap="round" stroke-linejoin="round"/>
<path d="M118.001 294.969C118.548 279.158 120.194 263.385 122.923 247.802" stroke="#E57E55" stroke-width="0.9971" stroke-miterlimit="10" stroke-linecap="round" stroke-linejoin="round"/>
<path d="M113.756 283.993C103.558 278.934 92.607 275.397 81.376 273.535" stroke="#E57E55" stroke-width="0.9971" stroke-miterlimit="10" stroke-linecap="round" stroke-linejoin="round"/>
<path d="M103.345 262.531C105.401 257.75 106.807 252.691 107.513 247.535" stroke="#E57E55" stroke-width="0.9971" stroke-miterlimit="10" stroke-linecap="round" stroke-linejoin="round"/>
<path d="M471.863 296.007C477.52 279.971 486.121 264.978 497.108 252" stroke="#E57E55" stroke-width="0.7983" stroke-miterlimit="10" stroke-linecap="round" stroke-linejoin="round"/>
<path d="M471.871 296.582C471.433 283.923 470.115 271.295 467.931 258.819" stroke="#E57E55" stroke-width="0.7983" stroke-miterlimit="10" stroke-linecap="round" stroke-linejoin="round"/>
<path d="M475.27 287.795C483.435 283.745 492.202 280.913 501.193 279.422" stroke="#E57E55" stroke-width="0.7983" stroke-miterlimit="10" stroke-linecap="round" stroke-linejoin="round"/>
<path d="M483.605 270.612C481.959 266.784 480.833 262.734 480.268 258.606" stroke="#E57E55" stroke-width="0.7983" stroke-miterlimit="10" stroke-linecap="round" stroke-linejoin="round"/>
<path d="M97.9811 229.939C98.1791 229.979 98.3241 230.087 98.4741 230.189C98.6081 230.311 98.7471 230.427 98.8291 230.613C98.9251 230.829 98.8271 231.084 98.6121 231.186C98.5231 231.228 98.4281 231.237 98.3411 231.218C98.1461 231.175 98.0021 231.07 97.8541 230.97C97.7221 230.849 97.5861 230.734 97.5021 230.552C97.4041 230.34 97.4961 230.082 97.7081 229.976C97.7961 229.931 97.8921 229.921 97.9811 229.939Z" fill="white"/>
<path d="M99.5828 231.229C99.7788 231.275 99.9208 231.387 100.068 231.493C100.198 231.619 100.333 231.74 100.412 231.925C100.503 232.142 100.397 232.396 100.18 232.491C100.09 232.531 99.9959 232.537 99.9079 232.516C99.7119 232.471 99.5719 232.36 99.4269 232.255C99.2989 232.13 99.1659 232.011 99.0869 231.826C98.9939 231.613 99.0918 231.358 99.3078 231.258C99.3978 231.217 99.4948 231.209 99.5828 231.229Z" fill="white"/>
<path d="M101.149 232.561C101.346 232.61 101.484 232.726 101.628 232.836C101.755 232.965 101.886 233.089 101.96 233.277C102.047 233.495 101.935 233.747 101.715 233.837C101.625 233.874 101.528 233.879 101.442 233.857C101.247 233.807 101.11 233.692 100.968 233.584C100.843 233.456 100.714 233.332 100.638 233.148C100.55 232.933 100.655 232.68 100.874 232.585C100.965 232.545 101.062 232.539 101.149 232.561Z" fill="white"/>
<path d="M103.85 235.012C104.043 235.069 104.179 235.189 104.319 235.304C104.44 235.438 104.567 235.567 104.633 235.758C104.71 235.98 104.591 236.226 104.367 236.309C104.275 236.343 104.179 236.344 104.094 236.318C103.902 236.26 103.769 236.14 103.631 236.026C103.51 235.894 103.384 235.767 103.316 235.578C103.237 235.358 103.352 235.11 103.574 235.024C103.667 234.988 103.764 234.986 103.85 235.012Z" fill="white"/>
<path d="M105.716 236.815C105.857 236.827 105.939 236.9 106.025 236.967C106.093 237.053 106.166 237.135 106.178 237.276C106.201 237.549 105.997 237.793 105.724 237.823C105.692 237.827 105.658 237.827 105.627 237.824C105.486 237.812 105.407 237.739 105.321 237.672C105.254 237.587 105.181 237.507 105.169 237.366C105.145 237.095 105.344 236.848 105.617 236.816C105.649 236.813 105.684 236.813 105.716 236.815Z" fill="white"/>
<path d="M107.242 238.396C107.383 238.412 107.463 238.487 107.548 238.557C107.614 238.646 107.685 238.729 107.693 238.871C107.709 239.146 107.494 239.381 107.222 239.404C107.19 239.407 107.156 239.406 107.125 239.403C106.985 239.387 106.907 239.313 106.824 239.244C106.759 239.157 106.689 239.075 106.68 238.935C106.663 238.664 106.868 238.422 107.141 238.396C107.175 238.392 107.21 238.392 107.242 238.396Z" fill="white"/>
<path d="M80.0894 224.604C81.4384 223.743 83.0514 223.432 84.6114 223.42C86.2034 223.46 87.7274 223.885 89.1544 224.46C90.5774 225.056 91.9234 225.795 93.2184 226.599C94.5094 227.411 95.7424 228.305 96.9304 229.248C97.0944 229.38 97.1174 229.622 96.9834 229.79C96.8534 229.952 96.6244 229.985 96.4634 229.87C95.2414 229.004 93.9974 228.173 92.7224 227.406C91.4504 226.635 90.1374 225.936 88.7774 225.384C87.4264 224.82 86.0064 224.418 84.5944 224.366C83.1654 224.352 81.7184 224.576 80.4904 225.27C80.3204 225.36 80.0854 225.289 79.9664 225.11C79.8524 224.937 79.9084 224.715 80.0894 224.604Z" fill="white"/>
<path d="M79.6369 225.771C79.5899 225.936 79.4689 226.009 79.3899 226.132C79.2859 226.229 79.1889 226.329 79.0239 226.374C78.7979 226.436 78.5329 226.318 78.4539 226.085C78.4289 226.011 78.4269 225.931 78.4429 225.858C78.4829 225.677 78.5899 225.551 78.6909 225.421C78.8029 225.303 78.9519 225.219 79.1319 225.18C79.3879 225.133 79.6079 225.31 79.6509 225.551C79.6639 225.629 79.6579 225.705 79.6369 225.771Z" fill="white"/>
<path d="M78.5438 226.982C78.5378 227.154 78.4638 227.274 78.3938 227.399C78.2958 227.506 78.2348 227.636 78.0868 227.721C77.8858 227.838 77.6047 227.782 77.4707 227.571C77.4287 227.504 77.4068 227.427 77.4028 227.351C77.3968 227.166 77.4568 227.015 77.5438 226.878C77.6458 226.75 77.7418 226.618 77.9068 226.537C78.1348 226.425 78.3908 226.537 78.4968 226.763C78.5308 226.834 78.5458 226.911 78.5438 226.982Z" fill="white"/>
<path d="M77.7407 228.426C77.6777 228.722 77.5917 229.004 77.5037 229.285L77.2857 230.147C77.1417 230.724 77.0207 231.306 76.8607 231.893C76.8007 232.091 76.5857 232.212 76.3777 232.16C76.2017 232.117 76.0917 231.965 76.0897 231.796C76.0717 231.159 76.1887 230.531 76.3187 229.907L76.6057 228.99C76.7297 228.692 76.8707 228.4 77.0267 228.119C77.1317 227.926 77.3957 227.884 77.5707 228.001C77.7227 228.102 77.7677 228.266 77.7407 228.426Z" fill="white"/>
<path d="M76.7319 233.422C76.8199 233.516 76.822 233.606 76.832 233.696C76.816 233.785 76.807 233.874 76.712 233.963C76.496 234.164 76.153 234.168 75.946 233.957L75.935 233.946C75.847 233.851 75.845 233.757 75.835 233.663C75.852 233.57 75.861 233.476 75.955 233.387C76.17 233.184 76.5119 233.201 76.7189 233.41L76.7319 233.422Z" fill="white"/>
<path d="M76.7374 235.241C76.8314 235.329 76.8404 235.418 76.8564 235.508C76.8464 235.598 76.8444 235.688 76.7564 235.783C76.5554 235.998 76.2134 236.024 75.9914 235.829L75.9794 235.819C75.8844 235.73 75.8754 235.637 75.8594 235.545C75.8694 235.451 75.8714 235.358 75.9594 235.263C76.1594 235.046 76.5014 235.037 76.7224 235.23L76.7374 235.241Z" fill="white"/>
<path d="M503.171 254.774C503.219 254.983 503.183 255.174 503.154 255.367C503.102 255.555 503.046 255.741 502.912 255.908C502.755 256.102 502.481 256.128 502.299 255.969C502.224 255.904 502.176 255.817 502.156 255.725C502.111 255.518 502.155 255.333 502.181 255.144C502.234 254.961 502.28 254.777 502.41 254.61C502.561 254.416 502.835 254.378 503.021 254.529C503.1 254.594 503.15 254.681 503.171 254.774Z" fill="white"/>
<path d="M502.657 256.922C502.695 257.132 502.651 257.322 502.613 257.512C502.551 257.696 502.489 257.88 502.349 258.041C502.185 258.228 501.91 258.243 501.734 258.077C501.661 258.009 501.617 257.92 501.601 257.827C501.565 257.618 501.615 257.434 501.651 257.247C501.713 257.066 501.767 256.884 501.904 256.723C502.063 256.536 502.339 256.511 502.518 256.672C502.593 256.739 502.64 256.828 502.657 256.922Z" fill="white"/>
<path d="M502.054 259.042C502.085 259.253 502.033 259.44 501.989 259.63C501.919 259.811 501.853 259.993 501.707 260.149C501.537 260.33 501.262 260.336 501.091 260.165C501.021 260.094 500.979 260.004 500.967 259.911C500.938 259.701 500.993 259.518 501.037 259.332C501.105 259.153 501.166 258.973 501.309 258.816C501.475 258.634 501.751 258.62 501.924 258.787C501.997 258.858 502.04 258.948 502.054 259.042Z" fill="white"/>
<path d="M500.821 262.75C500.84 262.962 500.78 263.146 500.726 263.332C500.649 263.51 500.574 263.688 500.421 263.837C500.242 264.01 499.967 264.003 499.805 263.824C499.738 263.75 499.701 263.658 499.693 263.564C499.674 263.353 499.738 263.172 499.79 262.988C499.868 262.813 499.938 262.635 500.089 262.486C500.265 262.313 500.539 262.313 500.705 262.489C500.774 262.563 500.812 262.655 500.821 262.75Z" fill="white"/>
<path d="M499.837 265.349C499.879 265.491 499.841 265.602 499.81 265.715C499.755 265.819 499.706 265.925 499.577 265.999C499.329 266.141 499.024 266.051 498.894 265.801C498.879 265.772 498.866 265.738 498.857 265.708C498.815 265.567 498.854 265.458 498.885 265.346C498.94 265.244 498.988 265.139 499.115 265.065C499.36 264.923 499.667 265.006 499.799 265.255C499.814 265.284 499.828 265.318 499.837 265.349Z" fill="white"/>
<path d="M498.925 267.516C498.962 267.659 498.922 267.769 498.887 267.881C498.828 267.983 498.777 268.088 498.645 268.159C498.392 268.295 498.091 268.191 497.969 267.938C497.955 267.908 497.943 267.875 497.934 267.844C497.897 267.702 497.938 267.594 497.972 267.484C498.03 267.384 498.08 267.28 498.21 267.21C498.458 267.075 498.762 267.166 498.888 267.419C498.904 267.45 498.916 267.484 498.925 267.516Z" fill="white"/>
<path d="M492.063 245.633C493.463 244.796 494.934 244.029 496.555 243.594C498.137 243.149 500.016 243.039 501.594 243.967C502.382 244.442 502.953 245.22 503.267 246.031C503.582 246.848 503.716 247.692 503.785 248.526C503.868 250.197 503.664 251.836 503.344 253.434C503.296 253.655 503.088 253.797 502.878 253.751C502.675 253.707 502.545 253.507 502.579 253.299C502.814 251.725 502.947 250.136 502.842 248.593C502.719 247.085 502.278 245.5 501.075 244.817C499.875 244.085 498.269 244.104 496.795 244.508C495.297 244.879 493.851 245.561 492.452 246.306C492.26 246.413 492.019 246.348 491.914 246.161C491.812 245.981 491.88 245.748 492.063 245.633Z" fill="white"/>
<path d="M491.451 246.803C491.363 246.966 491.231 247.056 491.103 247.152C490.96 247.225 490.825 247.312 490.641 247.324C490.388 247.342 490.17 247.155 490.16 246.903C490.157 246.823 490.176 246.744 490.211 246.676C490.298 246.509 490.43 246.411 490.563 246.314C490.709 246.237 490.852 246.154 491.039 246.143C491.297 246.128 491.504 246.324 491.507 246.576C491.508 246.657 491.487 246.735 491.451 246.803Z" fill="white"/>
<path d="M489.923 247.811C489.843 247.978 489.715 248.075 489.591 248.177C489.451 248.257 489.32 248.349 489.136 248.37C488.883 248.399 488.658 248.221 488.638 247.97C488.631 247.89 488.647 247.811 488.679 247.741C488.758 247.571 488.886 247.468 489.014 247.365C489.156 247.282 489.294 247.192 489.48 247.173C489.736 247.146 489.953 247.331 489.968 247.582C489.973 247.662 489.955 247.742 489.923 247.811Z" fill="white"/>
<path d="M488.438 248.886C487.972 249.352 487.462 249.757 486.964 250.179C486.448 250.578 485.947 250.996 485.391 251.352C485.203 251.474 484.956 251.426 484.839 251.243C484.743 251.093 484.766 250.897 484.883 250.764C485.326 250.264 485.828 249.83 486.336 249.404C486.858 248.995 487.386 248.591 487.97 248.264C488.168 248.152 488.412 248.219 488.514 248.411C488.598 248.569 488.562 248.762 488.438 248.886Z" fill="white"/>
<path d="M484.148 252.457C484.137 252.59 484.069 252.66 484.006 252.735C483.925 252.791 483.85 252.853 483.717 252.852C483.413 252.85 483.174 252.604 483.188 252.298L483.189 252.282C483.199 252.148 483.268 252.077 483.332 252.001C483.414 251.944 483.491 251.882 483.625 251.883C483.931 251.885 484.163 252.136 484.149 252.439L484.148 252.457Z" fill="white"/>
<path d="M482.73 253.815C482.724 253.948 482.659 254.02 482.598 254.097C482.52 254.156 482.447 254.22 482.315 254.223C482.013 254.231 481.761 253.998 481.765 253.689V253.673C481.771 253.538 481.838 253.465 481.899 253.385C481.979 253.325 482.054 253.26 482.188 253.256C482.495 253.248 482.735 253.492 482.73 253.795V253.815Z" fill="white"/>
<path d="M292.968 193.706C233.08 192.764 72.9146 242.341 53.3756 193.706C37.2736 153.626 97.4816 156.698 100.983 123.513C104.484 90.3269 88.8076 76.1929 113.798 60.8289C138.788 45.4649 179.513 66.7959 206.407 45.4649C233.301 24.1339 247.338 8.59189 307.879 1.21689C368.42 -6.15811 413.226 62.0569 439.13 68.8179C465.034 75.5779 502.139 58.3709 520.341 79.2649C538.544 100.16 479.735 146.4 492.337 165.684C504.939 184.968 535.796 195.415 523.868 222.455C511.94 249.496 351.262 194.623 292.968 193.706Z" fill="#FFD25A"/>
<path d="M53.9507 175.147C53.9437 174.875 54.0157 174.628 54.1027 174.387C54.2087 174.154 54.3087 173.917 54.4867 173.714C54.6907 173.477 54.9877 173.479 55.1227 173.693C55.1777 173.781 55.2077 173.896 55.2047 174.013C55.1987 174.277 55.1147 174.506 55.0367 174.738C54.9287 174.959 54.8497 175.19 54.6877 175.394C54.4987 175.631 54.2137 175.668 54.0537 175.465C53.9877 175.382 53.9537 175.268 53.9507 175.147Z" fill="white"/>
<path d="M55.0517 172.463C55.0787 172.192 55.2007 171.967 55.3067 171.734C55.4407 171.516 55.5547 171.286 55.7687 171.115C56.0127 170.913 56.2967 170.945 56.4087 171.177C56.4547 171.272 56.4647 171.387 56.4437 171.501C56.3927 171.756 56.2947 171.981 56.1877 172.202C56.0637 172.414 55.9367 172.624 55.7507 172.806C55.5357 173.018 55.2497 173.019 55.1167 172.796C55.0607 172.702 55.0407 172.584 55.0517 172.463Z" fill="white"/>
<path d="M56.4831 169.944C56.5471 169.682 56.6831 169.466 56.8131 169.246C56.9671 169.043 57.1261 168.842 57.3481 168.689C57.6081 168.512 57.8851 168.574 57.9721 168.818C58.0081 168.919 58.0071 169.035 57.9751 169.148C57.9051 169.402 57.7611 169.601 57.6341 169.811C57.4881 170.009 57.3481 170.21 57.1361 170.366C56.8901 170.547 56.6021 170.511 56.5001 170.276C56.4581 170.178 56.4551 170.061 56.4831 169.944Z" fill="white"/>
<path d="M59.6552 165.915C59.7602 165.666 59.9392 165.484 60.1062 165.292C60.2912 165.118 60.4772 164.943 60.7252 164.835C61.0122 164.707 61.2752 164.816 61.3192 165.071C61.3372 165.176 61.3152 165.29 61.2642 165.395C61.1472 165.63 60.9762 165.806 60.8142 165.993C60.6332 166.161 60.4532 166.328 60.2202 166.448C59.9492 166.587 59.6762 166.5 59.6162 166.248C59.5912 166.144 59.6072 166.027 59.6552 165.915Z" fill="white"/>
<path d="M62.3047 163.411C62.3617 163.241 62.4767 163.139 62.5877 163.033C62.7147 162.946 62.8377 162.853 63.0137 162.829C63.3547 162.784 63.5817 163.011 63.5277 163.324C63.5207 163.361 63.5107 163.401 63.4977 163.437C63.4387 163.603 63.3267 163.701 63.2197 163.804C63.0957 163.887 62.9767 163.977 62.8057 164.005C62.4747 164.058 62.2327 163.849 62.2767 163.529C62.2807 163.491 62.2917 163.449 62.3047 163.411Z" fill="white"/>
<path d="M64.7699 161.557C64.8459 161.396 64.9699 161.304 65.0929 161.209C65.2279 161.135 65.3629 161.056 65.5429 161.051C65.8949 161.043 66.0809 161.302 65.9939 161.604C65.9839 161.64 65.9689 161.677 65.9519 161.712C65.8749 161.868 65.7549 161.95 65.6379 162.043C65.5069 162.112 65.3819 162.191 65.2079 162.199C64.8729 162.215 64.6529 161.985 64.7289 161.671C64.7389 161.633 64.7539 161.593 64.7699 161.557Z" fill="white"/>
<path d="M60.4653 200.497C59.7353 199.724 59.1283 198.846 58.4563 198.019C57.8823 197.125 57.2913 196.237 56.7543 195.32C56.2823 194.368 55.7773 193.43 55.3333 192.465L54.1603 189.501C53.4813 187.478 53.0313 185.367 52.8993 183.228C52.7643 181.09 52.9803 178.929 53.5433 176.868C53.6233 176.582 53.8543 176.404 54.0593 176.469C54.2573 176.532 54.3613 176.791 54.2983 177.055C53.8343 179.058 53.6863 181.124 53.8443 183.167C53.9883 185.212 54.4343 187.232 55.1043 189.178L56.2233 192.075C56.6483 193.017 57.1323 193.932 57.5823 194.863C58.0913 195.76 58.6473 196.632 59.1803 197.518C59.8103 198.334 60.3713 199.21 61.0523 199.987C61.2413 200.201 61.2613 200.487 61.0973 200.626C60.9383 200.759 60.6603 200.7 60.4653 200.497Z" fill="white"/>
<path d="M61.9617 201.112C62.1707 201.2 62.3067 201.356 62.4667 201.489C62.6117 201.638 62.7607 201.781 62.8517 201.987C62.9777 202.271 62.8647 202.542 62.5917 202.584C62.5047 202.597 62.4097 202.585 62.3187 202.553C62.0977 202.475 61.9337 202.334 61.7657 202.198C61.6177 202.042 61.4847 201.871 61.4017 201.652C61.2917 201.347 61.4267 201.087 61.6967 201.064C61.7847 201.056 61.8767 201.075 61.9617 201.112Z" fill="white"/>
<path d="M63.6829 202.742C63.8999 202.809 64.0439 202.959 64.2229 203.067C64.3799 203.203 64.5409 203.333 64.6499 203.531C64.7999 203.804 64.7119 204.084 64.4449 204.15C64.3599 204.171 64.2639 204.167 64.1709 204.143C63.9439 204.085 63.7689 203.958 63.5899 203.837C63.4209 203.703 63.2779 203.539 63.1749 203.33C63.0379 203.036 63.1499 202.765 63.4159 202.718C63.5009 202.703 63.5939 202.713 63.6829 202.742Z" fill="white"/>
<path d="M65.5427 204.213C66.2837 204.643 67.0027 205.06 67.7277 205.481C68.4587 205.891 69.1837 206.296 69.9307 206.715C70.1777 206.862 70.2827 207.128 70.1617 207.309C70.0617 207.457 69.8357 207.499 69.6157 207.426C68.7747 207.171 68.0027 206.757 67.2317 206.346C66.4837 205.899 65.7527 205.412 65.0897 204.845C64.8717 204.64 64.8287 204.356 64.9897 204.21C65.1237 204.09 65.3507 204.097 65.5427 204.213Z" fill="white"/>
<path d="M71.9225 207.504C72.0715 207.455 72.1915 207.487 72.3145 207.512C72.4295 207.562 72.5465 207.604 72.6405 207.729C72.8535 208.014 72.7715 208.348 72.4345 208.468L72.4165 208.474C72.2665 208.523 72.1394 208.489 72.0114 208.462C71.8914 208.41 71.7684 208.366 71.6734 208.241C71.4584 207.95 71.5714 207.625 71.9014 207.512L71.9225 207.504Z" fill="white"/>
<path d="M74.3623 208.146C74.5023 208.081 74.6243 208.103 74.7473 208.111C74.8663 208.143 74.9853 208.167 75.0933 208.277C75.3313 208.52 75.3343 208.865 75.0013 209.038L74.9843 209.047C74.8413 209.117 74.7073 209.101 74.5743 209.093C74.4463 209.057 74.3193 209.023 74.2083 208.908C73.9563 208.645 74.0303 208.311 74.3423 208.155L74.3623 208.146Z" fill="white"/>
<path d="M295.058 32.2679C267.004 36.8279 245.184 49.5969 229.598 70.5749C215.051 89.7289 218.169 114.355 230.637 133.508C242.067 151.75 263.886 158.134 284.667 162.695C342.853 176.376 395.844 193.706 450.913 211.035C474.811 218.332 502.865 229.277 523.646 212.859C523.657 212.851 523.667 212.842 523.678 212.834C525.713 211.221 526.586 208.763 526.101 206.395C522.793 190.252 502.094 180.616 492.335 165.684C479.733 146.4 538.541 100.16 520.339 79.2649C502.137 58.3699 465.031 75.5779 439.128 68.8179C436.057 68.0169 432.717 66.3439 429.121 64.0429C382.775 53.7589 346.164 24.3519 295.058 32.2679Z" fill="#FFBE57"/>
<path d="M501.355 225.378C476.875 225.378 434.837 215.984 394.184 206.899C354.174 197.958 316.382 189.513 293.061 189.146C292.468 189.137 291.855 189.132 291.243 189.132C272.065 189.132 243.824 193.725 213.923 198.588C179.443 204.196 140.364 210.552 110.037 210.553C80.1719 210.553 63.2409 204.546 58.2759 192.189C50.6059 173.099 61.9209 166.284 77.5819 156.853C90.1459 149.287 104.387 140.71 106.156 123.933C107.407 112.079 106.291 102.469 105.394 94.7469C103.72 80.3399 102.88 73.1079 116.779 64.5639C122.767 60.8819 130.213 59.3119 141.677 59.3119C146.048 59.3119 150.504 59.5269 155.222 59.7549C159.998 59.9859 164.936 60.2239 169.843 60.2239C181.811 60.2239 197.178 58.9309 209.89 48.8489C212.364 46.8869 214.729 44.9739 217.032 43.1109C239.192 25.1879 255.203 12.2379 308.594 5.73495C311.391 5.39395 314.234 5.22095 317.046 5.22095C350.958 5.22095 379.78 29.777 402.939 49.507C416.763 61.285 427.682 70.5879 437.648 73.1889C442.478 74.4489 447.997 75.0619 454.522 75.0619C460.603 75.0619 466.882 74.5409 472.955 74.0369C479.002 73.5349 484.712 73.061 490.202 73.061C502.955 73.061 510.734 75.745 516.214 82.035C523.742 90.677 512.21 108.222 502.035 123.701C490.914 140.619 480.41 156.598 487.83 167.953C492.119 174.517 498.169 179.961 504.019 185.226C516.297 196.276 525.995 205.003 519.022 220.808C517.724 223.755 511.448 225.378 501.355 225.378Z" stroke="white" stroke-width="0.9735" stroke-miterlimit="10"/>
<path d="M462.978 274.846H150.209C148.08 274.846 146.354 273.12 146.354 270.991V101.736C146.354 99.6069 148.08 97.8809 150.209 97.8809H462.977C465.106 97.8809 466.831 99.6069 466.831 101.736V270.991C466.832 273.12 465.107 274.846 462.978 274.846Z" fill="#000000"/>
<path d="M457.373 268.167H144.605C142.476 268.167 140.75 266.441 140.75 264.312V95.0569C140.75 92.9279 142.476 91.2019 144.605 91.2019H457.373C459.502 91.2019 461.228 92.9279 461.228 95.0569V264.312C461.228 266.441 459.502 268.167 457.373 268.167Z" fill="#000000"/>
<path d="M453.5 261.487H137.269C136.096 261.487 135.145 260.536 135.145 259.363V86.646C135.145 85.473 136.096 84.522 137.269 84.522H453.5C454.673 84.522 455.624 85.473 455.624 86.646V259.364C455.623 260.537 454.673 261.487 453.5 261.487Z" fill="white" stroke="#000000" stroke-width="0.9736" stroke-miterlimit="10"/>
<path fill-rule="evenodd" clip-rule="evenodd" d="M153.009 99.6889H173.506V98.4829H153.009V99.6889ZM148.186 100.292H150.597V97.8809H148.186V100.292ZM153.009 106.32H173.506V105.114H153.009V106.32ZM148.186 106.923H150.597V104.512H148.186V106.923ZM153.009 112.952H173.506V111.746H153.009V112.952ZM148.186 113.555H150.597V111.144H148.186V113.555Z" fill="#000000"/>
<path fill-rule="evenodd" clip-rule="evenodd" d="M224.093 212.46H163.298C154.952 212.46 148.186 205.694 148.186 197.348V139.337C148.186 130.991 154.952 124.225 163.298 124.225H224.093C232.439 124.225 239.205 130.991 239.205 139.337V197.348C239.205 205.694 232.439 212.46 224.093 212.46Z" fill="white" stroke="#000000" stroke-width="1.0244" stroke-miterlimit="10"/>
<path fill-rule="evenodd" clip-rule="evenodd" d="M326.332 212.46H265.537C257.191 212.46 250.425 205.694 250.425 197.348V139.337C250.425 130.991 257.191 124.225 265.537 124.225H326.332C334.678 124.225 341.444 130.991 341.444 139.337V197.348C341.444 205.694 334.678 212.46 326.332 212.46Z" fill="white" stroke="#000000" stroke-width="1.0244" stroke-miterlimit="10"/>
<path fill-rule="evenodd" clip-rule="evenodd" d="M428.569 212.46H367.774C359.428 212.46 352.662 205.694 352.662 197.348V139.337C352.662 130.991 359.428 124.225 367.774 124.225H428.569C436.915 124.225 443.681 130.991 443.681 139.337V197.348C443.682 205.694 436.916 212.46 428.569 212.46Z" fill="white" stroke="#000000" stroke-width="1.0244" stroke-miterlimit="10"/>
<path d="M421.408 106.904L419.878 96.7119C419.836 96.4309 419.599 96.2259 419.315 96.2239L416.574 96.2069L416.582 94.9419L419.323 94.9589C420.233 94.9649 420.993 95.6229 421.128 96.5239L421.298 97.6579L438.586 97.7669L436.81 105.806L421.408 106.904ZM421.49 98.9239L422.486 105.559L435.781 104.61L437.015 99.0209L421.49 98.9239Z" fill="#000000"/>
<path d="M437.047 109.303L422.106 109.217C421.785 109.215 421.482 109.074 421.275 108.829C421.068 108.584 420.979 108.262 421.03 107.945L421.324 106.132L422.573 106.334L422.311 107.953L437.055 108.038L437.047 109.303Z" fill="#000000"/>
<path d="M425.918 111.803C425.912 112.745 425.143 113.504 424.202 113.498C423.26 113.492 422.501 112.724 422.507 111.782C422.513 110.84 423.281 110.081 424.223 110.087C425.166 110.092 425.924 110.861 425.918 111.803Z" stroke="#000000" stroke-width="1.265" stroke-miterlimit="10"/>
<path d="M434.868 111.86C434.862 112.802 434.094 113.561 433.152 113.555C432.21 113.549 431.451 112.781 431.457 111.838C431.463 110.896 432.232 110.137 433.173 110.143C434.116 110.149 434.874 110.917 434.868 111.86Z" stroke="#000000" stroke-width="1.265" stroke-miterlimit="10"/>
<path d="M249.986 218.564H341.443" stroke="#000000" stroke-width="1.0244" stroke-miterlimit="10" stroke-linecap="round" stroke-linejoin="round"/>
<path opacity="0.7" d="M331.302 180.206C331.302 181.454 316.367 182.466 297.943 182.466C279.519 182.466 264.584 181.454 264.584 180.206C264.584 178.958 279.519 177.946 297.943 177.946C316.366 177.945 331.302 178.957 331.302 180.206Z" fill="#A1ABAD"/>
<path d="M271.388 156.628C271.388 156.628 272.055 154.941 277.896 157.157C281.064 158.359 285.192 161.263 293.227 157.759C293.227 157.759 295.675 165.883 285.436 165.172C275.197 164.463 271.388 156.628 271.388 156.628Z" fill="#DD4026"/>
<path d="M328.338 169.701L330.709 170.326C332.056 171.041 331.985 174.626 330.874 175.734C330.874 175.734 321.297 181.333 293.252 181.808C277.12 181.497 266.339 178.739 265.841 177.643C265.343 176.547 265.298 174.097 265.397 172.365L268.438 168.821L328.338 169.701Z" fill="#E2E2E2"/>
<path d="M271.388 156.628C271.388 156.628 268.227 159.661 267.853 162.159C267.315 165.749 266.708 167.529 267.095 171.155C267.095 171.155 276.19 174.701 291.344 174.877C298.823 174.964 309.554 174.511 317.405 173.112C324.086 171.921 330.709 170.326 330.709 170.326C328.78 163.571 322.943 166.079 314.625 163.446C308.967 161.655 295.495 150.536 295.495 150.536C295.495 150.536 292.373 152.853 292.203 154.044C292.096 154.796 293.582 156.751 293.582 156.751C293.582 156.751 293.208 163.136 286.836 163.56C280.632 163.971 271.388 156.628 271.388 156.628Z" fill="#FD6141"/>
<path d="M293.583 156.75C293.583 156.75 296.811 156.76 297.955 157.16C300.647 158.101 308.438 164.319 314.274 165.057" stroke="#EFE9DA" stroke-width="1.1573" stroke-miterlimit="10" stroke-linecap="round"/>
<path d="M303.226 156.513L300.624 160.716C300.267 161.212 298.709 160.091 299.065 159.595L301.475 155.159C301.996 154.488 303.746 155.841 303.226 156.513Z" fill="#E2E2E2"/>
<path d="M307.012 158.748L304.276 163.205C303.943 163.954 302.194 163.176 302.526 162.427L305.261 157.394C305.782 156.722 307.532 158.076 307.012 158.748Z" fill="#E2E2E2"/>
<path d="M310.799 160.983L308.03 165.462C307.735 166.095 306.019 165.295 306.314 164.662L309.049 159.629C309.569 158.958 311.319 160.311 310.799 160.983Z" fill="#E2E2E2"/>
<path d="M295.318 158.836C295.369 157.607 297.353 157.688 297.302 158.918L296.515 166.385C296.515 167.463 295.383 167.463 295.383 166.385L295.318 158.836Z" fill="#E2E2E2"/>
<path d="M288.415 174.941C288.415 174.941 289.327 171.609 292.522 170.104C296.103 168.416 304.612 171.606 309.32 168.994C310.703 168.226 314.275 165.058 314.275 165.058" stroke="#EFE9DA" stroke-width="1.1573" stroke-miterlimit="10" stroke-linecap="round"/>
<path d="M268.681 160.189C268.681 160.189 273.729 162.451 276.077 165.433C277.135 166.776 278.609 174 278.609 174" stroke="#EFE9DA" stroke-width="1.1573" stroke-miterlimit="10" stroke-linecap="round"/>
<path opacity="0.7" d="M226.484 180.206C226.484 181.454 211.549 182.466 193.125 182.466C174.701 182.466 159.766 181.454 159.766 180.206C159.766 178.958 174.701 177.946 193.125 177.946C211.548 177.945 226.484 178.957 226.484 180.206Z" fill="#A1ABAD"/>
<path d="M166.569 156.628C166.569 156.628 167.236 154.941 173.077 157.157C176.245 158.359 180.373 161.263 188.408 157.759C188.408 157.759 190.856 165.883 180.617 165.172C170.378 164.463 166.569 156.628 166.569 156.628Z" fill="#DD4026"/>
<path d="M223.52 169.701L225.891 170.326C227.238 171.041 227.167 174.626 226.056 175.734C226.056 175.734 216.479 181.333 188.434 181.808C172.302 181.497 161.521 178.739 161.023 177.643C160.525 176.547 160.48 174.097 160.579 172.365L163.62 168.821L223.52 169.701Z" fill="#E2E2E2"/>
<path d="M166.57 156.628C166.57 156.628 163.409 159.661 163.035 162.159C162.497 165.749 161.89 167.529 162.277 171.155C162.277 171.155 171.372 174.701 186.526 174.877C194.005 174.964 204.736 174.511 212.587 173.112C219.268 171.921 225.891 170.326 225.891 170.326C223.962 163.571 218.125 166.079 209.807 163.446C204.149 161.655 190.677 150.536 190.677 150.536C190.677 150.536 187.555 152.853 187.385 154.044C187.278 154.796 188.764 156.751 188.764 156.751C188.764 156.751 188.39 163.136 182.018 163.56C175.814 163.971 166.57 156.628 166.57 156.628Z" fill="#FFD25A"/>
<path d="M188.765 156.75C188.765 156.75 191.993 156.76 193.137 157.16C195.829 158.101 203.62 164.319 209.456 165.057" stroke="#EFE9DA" stroke-width="1.1573" stroke-miterlimit="10"/>
<path d="M198.408 156.513L195.806 160.716C195.449 161.212 193.891 160.091 194.247 159.595L196.658 155.159C197.178 154.488 198.928 155.841 198.408 156.513Z" fill="#E2E2E2"/>
<path d="M202.194 158.748L199.458 163.205C199.125 163.954 197.376 163.176 197.709 162.427L200.444 157.394C200.964 156.722 202.714 158.076 202.194 158.748Z" fill="#E2E2E2"/>
<path d="M205.981 160.983L203.212 165.462C202.917 166.095 201.201 165.295 201.496 164.662L204.231 159.629C204.751 158.958 206.501 160.311 205.981 160.983Z" fill="#E2E2E2"/>
<path d="M190.501 158.836C190.552 157.607 192.536 157.688 192.485 158.918L191.698 166.385C191.698 167.463 190.566 167.463 190.566 166.385L190.501 158.836Z" fill="#E2E2E2"/>
<path d="M183.597 174.941C183.597 174.941 184.509 171.609 187.704 170.104C191.285 168.416 199.794 171.606 204.502 168.994C205.885 168.226 209.457 165.058 209.457 165.058" stroke="#EFE9DA" stroke-width="1.1573" stroke-miterlimit="10"/>
<path d="M163.862 160.189C163.862 160.189 168.91 162.451 171.258 165.433C172.316 166.776 173.79 174 173.79 174" stroke="#EFE9DA" stroke-width="1.1573" stroke-miterlimit="10"/>
<path opacity="0.7" d="M431.325 180.206C431.325 181.454 416.39 182.466 397.966 182.466C379.542 182.466 364.607 181.454 364.607 180.206C364.607 178.958 379.542 177.946 397.966 177.946C416.39 177.945 431.325 178.957 431.325 180.206Z" fill="#A1ABAD"/>
<path d="M371.412 156.628C371.412 156.628 372.079 154.941 377.92 157.157C381.088 158.359 385.216 161.263 393.251 157.759C393.251 157.759 395.699 165.883 385.46 165.172C375.22 164.463 371.412 156.628 371.412 156.628Z" fill="#3C8460"/>
<path d="M428.363 169.701L430.734 170.326C432.081 171.041 432.01 174.626 430.899 175.734C430.899 175.734 421.322 181.333 393.277 181.808C377.145 181.497 366.364 178.739 365.866 177.643C365.368 176.547 365.323 174.097 365.422 172.365L368.463 168.821L428.363 169.701Z" fill="#E2E2E2"/>
<path d="M371.413 156.628C371.413 156.628 368.252 159.661 367.878 162.159C367.339 165.749 366.733 167.529 367.12 171.155C367.12 171.155 376.215 174.701 391.369 174.877C398.848 174.964 409.579 174.511 417.43 173.112C424.111 171.921 430.734 170.326 430.734 170.326C428.805 163.571 422.968 166.079 414.65 163.446C408.992 161.655 395.52 150.536 395.52 150.536C395.52 150.536 392.398 152.853 392.228 154.044C392.121 154.796 393.607 156.751 393.607 156.751C393.607 156.751 393.233 163.136 386.861 163.56C380.656 163.971 371.413 156.628 371.413 156.628Z" fill="#424242"/>
<path d="M393.606 156.75C393.606 156.75 396.834 156.76 397.978 157.16C400.67 158.101 408.461 164.319 414.297 165.057" stroke="#EFE9DA" stroke-width="1.1573" stroke-miterlimit="10"/>
<path d="M403.25 156.513L400.648 160.716C400.291 161.212 398.733 160.091 399.089 159.595L401.499 155.159C402.02 154.488 403.77 155.841 403.25 156.513Z" fill="#E2E2E2"/>
<path d="M407.037 158.748L404.301 163.205C403.968 163.954 402.219 163.176 402.552 162.427L405.287 157.394C405.806 156.722 407.557 158.076 407.037 158.748Z" fill="#E2E2E2"/>
<path d="M410.823 160.983L408.054 165.462C407.759 166.095 406.043 165.295 406.338 164.662L409.073 159.629C409.593 158.958 411.343 160.311 410.823 160.983Z" fill="#E2E2E2"/>
<path d="M395.343 158.836C395.394 157.607 397.378 157.688 397.327 158.918L396.54 166.385C396.54 167.463 395.408 167.463 395.408 166.385L395.343 158.836Z" fill="#E2E2E2"/>
<path d="M388.438 174.941C388.438 174.941 389.35 171.609 392.545 170.104C396.126 168.416 404.635 171.606 409.343 168.994C410.726 168.226 414.298 165.058 414.298 165.058" stroke="#EFE9DA" stroke-width="1.1573" stroke-miterlimit="10"/>
<path d="M368.704 160.189C368.704 160.189 373.752 162.451 376.1 165.433C377.158 166.776 378.632 174 378.632 174" stroke="#EFE9DA" stroke-width="1.1573" stroke-miterlimit="10"/>
<path d="M260.274 140.463V140.567C260.274 141.085 260.146 141.307 259.848 141.307H256.953C256.655 141.307 256.527 141.085 256.527 140.567V140.463C256.527 139.945 256.655 139.723 256.953 139.723H259.848C260.146 139.723 260.274 139.945 260.274 140.463Z" fill="#000000"/>
<path d="M266.99 136.452C266.99 138.509 265.855 138.938 264.861 138.938C263.868 138.938 262.732 138.509 262.732 136.452C262.732 134.395 263.867 133.966 264.861 133.966C265.854 133.966 266.99 134.395 266.99 136.452ZM264.18 136.452C264.18 137.029 264.308 137.725 264.861 137.725C265.414 137.725 265.528 137.03 265.528 136.452C265.528 135.875 265.414 135.238 264.861 135.238C264.308 135.238 264.18 135.875 264.18 136.452ZM270.948 134.262C270.948 134.306 270.92 134.38 270.877 134.469L265.811 144.059C265.669 144.325 265.485 144.473 265.186 144.473H264.562C264.364 144.473 264.264 144.384 264.264 144.281C264.264 144.222 264.292 144.148 264.335 144.059L269.401 134.469C269.543 134.202 269.727 134.054 270.026 134.054H270.65C270.85 134.055 270.948 134.144 270.948 134.262ZM272.481 142.076C272.481 144.133 271.346 144.562 270.352 144.562C269.359 144.562 268.223 144.133 268.223 142.076C268.223 140.019 269.358 139.589 270.352 139.589C271.346 139.589 272.481 140.018 272.481 142.076ZM269.672 142.076C269.672 142.653 269.8 143.349 270.353 143.349C270.906 143.349 271.02 142.654 271.02 142.076C271.02 141.499 270.906 140.863 270.353 140.863C269.799 140.862 269.672 141.499 269.672 142.076Z" fill="#000000"/>
<path d="M320.965 188.83V189.806C322.356 189.83 324.82 190.391 324.82 191.197C324.82 191.563 324.283 192.49 324.039 192.49C323.673 192.49 322.795 191.611 320.965 191.563V197.248C323.137 198.029 325.625 198.907 325.625 202.275C325.625 205.057 323.819 206.814 320.965 207.057V208.277C320.965 208.546 320.819 208.668 320.477 208.668C320.135 208.668 319.989 208.546 319.989 208.277V207.082C317.232 207.009 315.158 205.96 315.158 205.301C315.158 204.911 315.744 203.983 316.012 203.983C316.305 203.983 317.622 205.252 319.989 205.325V199.03C317.842 198.2 315.475 197.346 315.475 194.199C315.475 191.808 317.232 190.148 319.989 189.856V188.831C319.989 188.563 320.135 188.441 320.477 188.441C320.819 188.441 320.965 188.561 320.965 188.83ZM317.696 194.295C317.696 195.686 318.697 196.345 319.99 196.882V191.636C318.599 191.88 317.696 192.758 317.696 194.295ZM320.965 205.251C322.405 204.983 323.405 203.86 323.405 202.274C323.405 200.737 322.307 200.005 320.965 199.419V205.251Z" fill="#FD6141"/>
<path d="M309.977 207.87H270.959C268.787 207.87 267.025 206.109 267.025 203.936V203.353C267.025 201.18 268.786 199.419 270.959 199.419H309.978C312.15 199.419 313.912 201.18 313.912 203.353V203.936C313.911 206.109 312.15 207.87 309.977 207.87Z" fill="#FD6141"/>
<path opacity="0.2" d="M594.979 391.312H3.02079C0.815789 391.312 -0.157212 388.535 1.56579 387.159L90.2198 316.342C92.1218 314.823 94.5448 313.988 97.0508 313.988H500.949C503.455 313.988 505.878 314.823 507.78 316.342L596.434 387.159C598.157 388.535 597.184 391.312 594.979 391.312Z" fill="#000000"/>
<path d="M592.711 362.356H5.28906L96.3761 289.596C98.2221 288.122 100.573 287.311 103.005 287.311H494.995C497.427 287.311 499.779 288.122 501.624 289.596L592.711 362.356Z" fill="#626262"/>
<path d="M534.482 355.849H63.5195L129.827 293.818H468.175L534.482 355.849Z" fill="#000000"/>
<path d="M528.705 355.849H69.2949L133.975 296.481H464.025L528.705 355.849Z" fill="white"/>
<path d="M578.395 381.876H19.6051C11.6981 381.876 5.28906 375.466 5.28906 367.56V362.356H592.711V367.56C592.711 375.467 586.301 381.876 578.395 381.876Z" fill="#000000"/>
<path d="M5.28906 369.947H592.711" stroke="white" stroke-width="0.9734" stroke-miterlimit="10"/>
<path d="M202.686 375.655H122.334C119.696 375.655 117.557 373.516 117.557 370.878V370.17C117.557 367.532 119.696 365.393 122.334 365.393H202.686C205.324 365.393 207.463 367.532 207.463 370.17V370.878C207.463 373.516 205.324 375.655 202.686 375.655Z" fill="#000000"/>
<path d="M203.222 375.655H121.796C119.454 375.655 117.555 373.756 117.555 371.415V370.786C117.555 368.444 119.453 366.545 121.796 366.545H203.222C205.564 366.545 207.463 368.443 207.463 370.786V371.415C207.463 373.756 205.564 375.655 203.222 375.655Z" fill="#626262"/>
<path d="M491.023 305.215L524.406 334.732H542.28V332.382L491.023 302.865V305.215Z" fill="#000000"/>
<path d="M491.023 302.865L524.406 332.382H542.28L505.177 302.865H491.023Z" fill="#FDEEFF"/>
<path d="M83.3399 323.069C91.0968 323.069 97.3849 320.331 97.3849 316.955C97.3849 313.578 91.0968 310.841 83.3399 310.841C75.5831 310.841 69.2949 313.578 69.2949 316.955C69.2949 320.331 75.5831 323.069 83.3399 323.069Z" fill="white"/>
<path d="M93.1749 316.501C93.1749 318.615 88.7719 320.329 83.3389 320.329C77.9069 320.329 73.5029 318.615 73.5029 316.501C73.5029 314.387 77.9069 312.673 83.3389 312.673C88.7719 312.674 93.1749 314.387 93.1749 316.501Z" fill="#000000"/>
<path d="M84.5047 315.636C84.5047 316.365 82.9866 316.956 81.1136 316.956C79.2406 316.956 77.7227 316.365 77.7227 315.636C77.7227 314.907 79.2406 314.316 81.1136 314.316C82.9866 314.316 84.5047 314.907 84.5047 315.636Z" fill="white"/>
<path d="M476.396 69.0529H152.816C145.425 69.0529 139.434 63.0619 139.434 55.6709V53.6879C139.434 46.2969 145.425 40.3059 152.816 40.3059H476.396C483.787 40.3059 489.778 46.2969 489.778 53.6879V55.6709C489.778 63.0609 483.786 69.0529 476.396 69.0529Z" fill="#626262"/>
<path d="M86.7959 69.0519C94.7338 69.0519 101.169 62.6169 101.169 54.6789C101.169 46.7409 94.7338 40.3059 86.7959 40.3059C78.8579 40.3059 72.4229 46.7409 72.4229 54.6789C72.4229 62.6169 78.8579 69.0519 86.7959 69.0519Z" fill="#626262"/>
<path d="M120.302 69.0529C128.24 69.0529 134.676 62.6175 134.676 54.6789C134.676 46.7404 128.24 40.3049 120.302 40.3049C112.363 40.3049 105.928 46.7404 105.928 54.6789C105.928 62.6175 112.363 69.0529 120.302 69.0529Z" fill="#626262"/>
<path d="M509.704 39.5828L514.454 49.7358L525.578 51.1148L517.389 58.7698L519.514 69.7748L509.704 64.3528L499.894 69.7748L502.02 58.7698L493.831 51.1148L504.955 49.7358L509.704 39.5828Z" fill="#626262"/>
<path d="M476.396 64.0798H152.816C145.425 64.0798 139.434 58.0888 139.434 50.6978V48.7148C139.434 41.3238 145.425 35.3328 152.816 35.3328H476.396C483.787 35.3328 489.778 41.3238 489.778 48.7148V50.6978C489.778 58.0888 483.786 64.0798 476.396 64.0798Z" fill="white" stroke="#000000" stroke-width="0.9736" stroke-miterlimit="10"/>
<path d="M223.995 44.4128V44.9468C225.267 44.9938 226.492 45.4648 226.492 45.9518C226.492 46.3128 226.068 47.1298 225.77 47.1298C225.55 47.1298 225.048 46.6898 223.996 46.6588V49.5158C225.347 50.0658 226.979 50.6938 226.979 52.7818C226.979 54.9168 225.629 55.9378 223.996 56.1108V56.8328C223.996 57.1158 223.871 57.2258 223.62 57.2258C223.322 57.2258 223.196 57.1158 223.196 56.8328V56.1268C221.171 56.0638 219.93 55.3258 219.93 54.8388C219.93 54.4308 220.479 53.6298 220.746 53.6298C220.997 53.6298 221.861 54.3998 223.195 54.4148V51.2898C221.814 50.7718 220.149 50.1748 220.149 48.0078C220.149 46.1398 221.515 45.1508 223.195 44.9618V44.4128C223.195 44.1298 223.321 44.0198 223.588 44.0198C223.87 44.0198 223.995 44.1298 223.995 44.4128ZM222.143 47.8978C222.143 48.5098 222.582 48.8718 223.195 49.1698V46.7358C222.441 46.9088 222.143 47.3638 222.143 47.8978ZM223.995 54.2888C224.576 54.1158 225 53.6608 225 52.9698C225 52.3258 224.576 51.9328 223.995 51.6508V54.2888Z" fill="#A1ABAD"/>
<path d="M231.798 51.7917V51.9177C231.798 52.3887 231.672 52.5777 231.389 52.5777H228.264C227.982 52.5777 227.856 52.3897 227.856 51.9177V51.7917C227.856 51.3207 227.982 51.1167 228.264 51.1167H231.389C231.672 51.1167 231.798 51.3207 231.798 51.7917Z" fill="#A1ABAD"/>
<path d="M237.703 47.5208C237.703 49.6718 236.463 50.1268 235.41 50.1268C234.358 50.1268 233.134 49.6718 233.134 47.5208C233.134 45.3698 234.343 44.9148 235.41 44.9148C236.463 44.9148 237.703 45.3698 237.703 47.5208ZM234.532 47.5208C234.532 48.1808 234.657 48.9968 235.411 48.9968C236.165 48.9968 236.306 48.1808 236.306 47.5208C236.306 46.8618 236.196 46.0768 235.411 46.0768C234.657 46.0768 234.532 46.8618 234.532 47.5208ZM242.053 45.1658C242.053 45.2128 242.021 45.2758 241.974 45.3538L236.274 55.6848C236.149 55.9358 235.929 56.0778 235.614 56.0778H235.143C234.923 56.0778 234.797 55.9988 234.797 55.8898C234.797 55.8428 234.829 55.7648 234.876 55.6858L240.56 45.3548C240.701 45.1028 240.921 44.9778 241.235 44.9778H241.706C241.927 44.9778 242.053 45.0558 242.053 45.1658ZM243.701 53.5188C243.701 55.6858 242.461 56.1258 241.408 56.1258C240.356 56.1258 239.132 55.6858 239.132 53.5188C239.132 51.3678 240.341 50.9128 241.408 50.9128C242.461 50.9128 243.701 51.3678 243.701 53.5188ZM240.529 53.5188C240.529 54.1788 240.655 54.9948 241.408 54.9948C242.162 54.9948 242.303 54.1788 242.303 53.5188C242.303 52.8758 242.193 52.0748 241.408 52.0748C240.655 52.0748 240.529 52.8758 240.529 53.5188Z" fill="#A1ABAD"/>
<path d="M209.854 57.2247H181.659C178.013 57.2247 175.057 54.2687 175.057 50.6227C175.057 46.9767 178.013 44.0208 181.659 44.0208H209.854C213.5 44.0208 216.456 46.9767 216.456 50.6227C216.456 54.2687 213.5 57.2247 209.854 57.2247Z" fill="#A1ABAD"/>
<path d="M86.7959 64.0797C94.7338 64.0797 101.169 57.6447 101.169 49.7067C101.169 41.7688 94.7338 35.3337 86.7959 35.3337C78.8579 35.3337 72.4229 41.7688 72.4229 49.7067C72.4229 57.6447 78.8579 64.0797 86.7959 64.0797Z" fill="white" stroke="#000000" stroke-width="0.9736" stroke-miterlimit="10"/>
<path d="M120.302 64.0808C128.24 64.0808 134.676 57.6453 134.676 49.7068C134.676 41.7682 128.24 35.3328 120.302 35.3328C112.363 35.3328 105.928 41.7682 105.928 49.7068C105.928 57.6453 112.363 64.0808 120.302 64.0808Z" fill="white" stroke="#000000" stroke-width="0.9736" stroke-miterlimit="10"/>
<path d="M509.704 34.6099L514.454 44.7629L525.578 46.1429L517.389 53.7969L519.514 64.8029L509.704 59.3809L499.894 64.8029L502.02 53.7969L493.831 46.1429L504.955 44.7629L509.704 34.6099Z" fill="#FFCC5A" stroke="#000000" stroke-width="0.9736" stroke-miterlimit="10"/>
<path d="M88.5745 40.9468L79.4785 49.9558L88.5745 59.1388L90.3065 57.4068L82.9435 49.9558L90.3065 42.6788L88.5745 40.9468Z" fill="#000000"/>
<path d="M118.999 59.1388L128.095 50.1298L118.999 40.9468L117.266 42.6788L124.63 50.1298L117.266 57.4068L118.999 59.1388Z" fill="#000000"/>
<path d="M168.971 57.9619L163.175 52.2329C163.985 51.0199 164.424 49.5739 164.417 48.1209C164.399 44.0099 160.999 40.6459 156.838 40.6219C154.88 40.6159 152.906 41.4049 151.501 42.7939C150.094 44.1839 149.295 46.1089 149.307 48.0729C149.325 52.1839 152.725 55.5489 156.886 55.5719C156.896 55.5719 156.907 55.5719 156.917 55.5719C158.384 55.5719 159.84 55.1339 161.07 54.3239L166.863 60.0499L168.971 57.9619ZM162.161 48.1199C162.169 49.4929 161.61 50.8379 160.627 51.8089C159.648 52.7769 158.293 53.3319 156.907 53.3319C156.9 53.3319 156.892 53.3319 156.885 53.3319C153.964 53.3149 151.576 50.9569 151.563 48.0749C151.555 46.7019 152.114 45.3569 153.097 44.3849C154.081 43.4119 155.438 42.8529 156.838 42.8619C159.761 42.8799 162.148 45.2379 162.161 48.1199Z" fill="#000000"/>
<path fill-rule="evenodd" clip-rule="evenodd" d="M470.311 50.043L467.052 53.32C466.666 53.708 466.666 54.337 467.052 54.725C467.438 55.113 468.063 55.113 468.449 54.725L471.708 51.448L474.967 54.725C475.353 55.113 475.978 55.113 476.364 54.725C476.75 54.337 476.75 53.708 476.364 53.32L473.105 50.043L476.364 46.766C476.75 46.378 476.75 45.749 476.364 45.361C475.978 44.973 475.353 44.973 474.967 45.361L471.708 48.638L468.449 45.361C468.063 44.973 467.438 44.973 467.052 45.361C466.666 45.749 466.666 46.378 467.052 46.766L470.311 50.043ZM471.708 60.636C465.889 60.636 461.172 55.893 461.172 50.043C461.172 44.192 465.889 39.45 471.708 39.45C477.527 39.45 482.244 44.193 482.244 50.043C482.244 55.894 477.527 60.636 471.708 60.636Z" fill="#000000"/>
<path d="M107.936 116.59C107.936 105.85 99.2298 97.1438 88.4898 97.1438C77.7498 97.1438 69.0438 105.85 69.0438 116.59C69.0438 121.055 67.7038 123.975 88.4898 161.291C109.361 123.807 107.918 118.891 107.936 116.59Z" fill="#FD6141"/>
<path d="M88.4885 125.644C83.7435 125.644 79.8965 121.797 79.8965 117.052C79.8965 112.307 83.7435 108.46 88.4885 108.46C93.2345 108.46 97.0805 112.307 97.0805 117.052C97.0805 121.798 93.2335 125.644 88.4885 125.644Z" fill="white"/>
<path opacity="0.2" d="M244.575 316.116L236.683 329.782C235.081 332.556 237.266 335.902 240.681 335.902H318.265C321.351 335.902 323.533 333.123 322.563 330.427L317.646 316.761C317.033 315.056 315.3 313.904 313.348 313.904H248.572C246.899 313.905 245.361 314.755 244.575 316.116Z" fill="#000000"/>
<path d="M260.461 312.318C260.461 316.124 257.375 319.209 253.569 319.209C249.763 319.209 246.678 316.124 246.678 312.318C246.678 308.512 249.763 305.426 253.569 305.426C257.375 305.426 260.461 308.512 260.461 312.318Z" fill="#000000"/>
<path d="M253.57 316.462C255.858 316.462 257.714 314.606 257.714 312.318C257.714 310.029 255.858 308.174 253.57 308.174C251.281 308.174 249.426 310.029 249.426 312.318C249.426 314.606 251.281 316.462 253.57 316.462Z" fill="#3E2344"/>
<path d="M250.845 311.564L253.208 305.332C253.335 304.998 253.655 304.777 254.012 304.777H262.23C262.98 304.777 263.37 305.671 262.861 306.221L255.461 314.208C254.845 314.873 253.898 315.119 253.036 314.837L252.296 314.595C251.036 314.183 250.376 312.803 250.845 311.564Z" fill="#FFDCAE"/>
<path d="M253.569 313.905C254.446 313.905 255.156 313.194 255.156 312.318C255.156 311.441 254.446 310.731 253.569 310.731C252.693 310.731 251.982 311.441 251.982 312.318C251.982 313.194 252.693 313.905 253.569 313.905Z" fill="#000000"/>
<path d="M300.378 312.318C300.378 316.124 303.463 319.209 307.269 319.209C311.075 319.209 314.161 316.124 314.161 312.318C314.161 308.512 311.076 305.426 307.269 305.426C303.463 305.426 300.378 308.512 300.378 312.318Z" fill="#000000"/>
<path d="M303.125 312.318C303.125 314.607 304.98 316.462 307.269 316.462C309.558 316.462 311.413 314.607 311.413 312.318C311.413 310.029 309.558 308.174 307.269 308.174C304.981 308.174 303.125 310.029 303.125 312.318Z" fill="#3E2344"/>
<path d="M309.994 311.564L307.631 305.332C307.504 304.998 307.184 304.777 306.827 304.777H298.609C297.859 304.777 297.469 305.671 297.979 306.221L305.379 314.208C305.995 314.873 306.942 315.119 307.804 314.837L308.544 314.595C309.803 314.183 310.463 312.803 309.994 311.564Z" fill="#FFDCAE"/>
<path d="M307.269 313.905C308.145 313.905 308.856 313.194 308.856 312.318C308.856 311.441 308.145 310.731 307.269 310.731C306.392 310.731 305.682 311.441 305.682 312.318C305.682 313.194 306.392 313.905 307.269 313.905Z" fill="#000000"/>
<path d="M235.544 248.291C235.148 248.291 234.772 248.061 234.606 247.675C232.27 242.269 228.379 233.456 227.681 232.353C226.637 231.594 218.772 228.792 211.648 226.481C211.227 226.344 210.942 225.952 210.942 225.51C210.942 225.067 211.227 224.675 211.648 224.539L224.306 220.437C224.496 220.377 224.698 220.371 224.89 220.423C226.101 220.753 236.786 223.712 239.084 225.849C240.91 227.545 246.294 238.775 247.355 241.008C247.597 241.517 247.38 242.126 246.87 242.368C246.358 242.609 245.751 242.393 245.51 241.883C243.119 236.849 238.882 228.449 237.694 227.344C236.272 226.022 229.065 223.695 224.645 222.473L215.257 225.515C221.795 227.685 228.556 230.109 229.28 231.076C230.129 232.206 235.426 244.426 236.48 246.864C236.703 247.381 236.465 247.983 235.947 248.206C235.817 248.264 235.679 248.291 235.544 248.291Z" fill="#FD6141"/>
<path d="M232.777 243.121L244.301 235.965L333.166 240.313L335.204 245.884L232.777 243.121Z" fill="white" stroke="#FD6141" stroke-width="1.8544" stroke-miterlimit="10" stroke-linecap="round" stroke-linejoin="round"/>
<path d="M231.937 243.303L245.385 287.657C245.788 288.986 247.032 289.88 248.421 289.837L322.809 287.536C324.192 287.493 325.376 286.532 325.701 285.187L335.206 245.885L231.937 243.303Z" fill="#FD6141"/>
<path d="M251.938 261.855C256.744 271.856 267.377 273.872 277.5 273.37C299.232 272.293 318.222 263.807 330.949 245.778C330.949 245.778 251.837 243.8 251.818 243.8C250.649 243.784 250.074 251.375 250.016 252.36C249.825 255.638 250.526 258.915 251.938 261.855Z" fill="#FF8976"/>
<path d="M322.627 312.124C321.719 308.491 319.847 304.856 318.493 303.017C317.79 302.063 316.637 300.968 313.937 300.968H252.339C251.369 300.968 249.632 300.808 248.896 299.731C248.206 298.72 248.601 297.125 249.054 295.964C250.87 291.31 252.491 288.365 252.507 288.336L250.1 288.538C250.032 288.662 249.021 290.43 247.151 295.222C246.233 297.576 246.253 299.481 247.21 300.883C248.161 302.275 249.935 303.011 252.339 303.011H255.638V304.393C255.638 305.25 256.333 305.945 257.19 305.945H258.37C259.227 305.945 259.922 305.25 259.922 304.393V303.011H300.651V304.393C300.651 305.25 301.346 305.945 302.203 305.945H303.383C304.24 305.945 304.935 305.25 304.935 304.393V303.011H313.936C315.795 303.011 316.413 303.639 316.847 304.228C318.126 305.965 319.842 309.405 320.646 312.62C320.827 313.342 320.777 313.893 320.499 314.257C319.942 314.988 318.533 315.076 318.114 315.085C303.841 315.405 273.058 315.23 256.52 315.135C251.604 315.106 247.88 315.085 246.106 315.085C243.598 315.085 241.732 314.367 240.85 313.064C240.001 311.809 240.025 309.967 240.92 307.736C242.889 302.83 248.677 288.218 248.677 288.218L246.779 287.466C246.779 287.466 240.994 302.073 239.026 306.976C237.562 310.624 238.29 312.923 239.16 314.207C240.433 316.09 242.9 317.126 246.107 317.126C247.27 317.126 249.286 317.135 251.914 317.149V318.485C251.914 319.342 252.609 320.037 253.466 320.037H254.646C255.503 320.037 256.198 319.342 256.198 318.485V317.483C256.318 317.361 256.383 317.296 256.503 317.174C265.928 317.229 279.975 317.309 292.968 317.309C296.495 317.309 299.941 317.303 303.198 317.289V318.485C303.198 319.342 303.893 320.037 304.75 320.037H305.93C306.787 320.037 307.482 319.342 307.482 318.485V317.265C311.561 317.236 315.214 317.192 318.161 317.126C319.194 317.102 321.083 316.86 322.124 315.495C322.797 314.612 322.966 313.478 322.627 312.124Z" fill="#FD6141"/>
<path d="M332.227 245.054L323.008 283.075C322.755 284.122 321.825 284.878 320.748 284.911L286.012 285.985C288.707 283.075 291.381 280.147 294.031 277.195C294.226 276.977 294.289 276.707 294.168 276.581C294.042 276.45 293.765 276.524 293.549 276.746C290.69 279.699 287.855 282.674 285.043 285.671L285.038 285.677C284.936 285.787 284.869 285.905 284.819 286.022L254.154 286.97C257.015 283.883 259.855 280.775 262.67 277.645C262.875 277.417 262.945 277.138 262.824 277.012C262.698 276.88 262.413 276.963 262.188 277.196C259.196 280.291 256.228 283.408 253.284 286.548L253.278 286.554C253.143 286.699 253.057 286.858 253.008 287.006L250.236 287.092C249.169 287.133 248.177 286.425 247.863 285.388L241.742 265.206C243.324 263.491 244.884 261.755 246.42 259.996C246.531 259.868 246.525 259.672 246.401 259.549C246.272 259.421 246.065 259.42 245.938 259.547C244.415 261.076 242.919 262.63 241.436 264.197L234.861 242.517L233.884 242.814L246.886 285.685C247.324 287.128 248.661 288.114 250.161 288.114C250.197 288.114 250.232 288.114 250.268 288.113L320.778 285.932C322.314 285.884 323.639 284.808 324 283.316L333.219 245.295L332.227 245.054Z" fill="white"/>
<path d="M247.229 259.148C247.505 258.976 247.722 258.751 247.945 258.53C248.15 258.293 248.36 258.06 248.512 257.773C248.571 257.66 248.57 257.519 248.496 257.402C248.386 257.228 248.156 257.173 247.983 257.28C247.707 257.451 247.49 257.677 247.267 257.898C247.062 258.135 246.852 258.368 246.7 258.655C246.64 258.768 246.642 258.91 246.716 259.027C246.826 259.201 247.056 259.255 247.229 259.148Z" fill="white"/>
<path d="M249.124 257.115C249.244 257.11 249.306 257.052 249.373 256.997C249.422 256.927 249.477 256.86 249.473 256.74C249.473 256.737 249.473 256.732 249.473 256.73C249.458 256.453 249.222 256.237 248.945 256.247C248.825 256.252 248.763 256.31 248.696 256.365C248.647 256.436 248.592 256.502 248.596 256.622C248.596 256.625 248.596 256.631 248.597 256.635C248.611 256.911 248.848 257.126 249.124 257.115Z" fill="white"/>
<path d="M257.624 247.981C259.698 245.871 261.748 243.738 263.774 241.582L263.776 241.579C263.947 241.394 263.934 241.103 263.745 240.929C263.557 240.755 263.266 240.764 263.095 240.949C261.086 243.12 259.102 245.314 257.141 247.531C257.028 247.659 257.035 247.858 257.16 247.981C257.292 248.109 257.499 248.109 257.624 247.981Z" fill="white"/>
<path d="M256.555 249.176C256.675 249.172 256.737 249.113 256.804 249.058C256.853 248.987 256.908 248.921 256.904 248.801C256.904 248.798 256.904 248.792 256.903 248.788C256.888 248.512 256.651 248.297 256.375 248.308C256.255 248.313 256.193 248.371 256.126 248.426C256.077 248.496 256.022 248.562 256.026 248.683C256.026 248.686 256.026 248.69 256.027 248.693C256.041 248.97 256.277 249.186 256.555 249.176Z" fill="white"/>
<path d="M255.426 250.386C255.546 250.382 255.608 250.323 255.675 250.268C255.724 250.197 255.778 250.131 255.775 250.011C255.775 250.008 255.775 250.002 255.775 249.998C255.76 249.722 255.523 249.507 255.247 249.518C255.127 249.523 255.065 249.581 254.998 249.636C254.949 249.707 254.894 249.773 254.898 249.893C254.898 249.895 254.898 249.9 254.898 249.903C254.912 250.18 255.148 250.397 255.426 250.386Z" fill="white"/>
<path d="M254.297 251.597C254.417 251.593 254.479 251.534 254.546 251.479C254.595 251.408 254.65 251.342 254.646 251.222C254.646 251.219 254.646 251.213 254.645 251.209C254.63 250.933 254.393 250.718 254.117 250.729C253.997 250.734 253.935 250.792 253.868 250.847C253.818 250.917 253.764 250.983 253.768 251.104C253.768 251.107 253.768 251.112 253.768 251.114C253.783 251.391 254.02 251.607 254.297 251.597Z" fill="white"/>
<path d="M250.423 255.751C250.957 255.303 251.432 254.801 251.912 254.304C252.375 253.79 252.842 253.281 253.252 252.718C253.347 252.588 253.344 252.403 253.233 252.272C253.103 252.119 252.875 252.097 252.724 252.225C252.191 252.673 251.715 253.175 251.235 253.672C250.772 254.186 250.305 254.695 249.895 255.259C249.8 255.389 249.804 255.574 249.914 255.704C250.043 255.857 250.271 255.879 250.423 255.751Z" fill="white"/>
<path d="M263.467 276.138C263.549 276.343 263.843 276.328 264.124 276.104C264.573 275.747 264.964 275.335 265.36 274.928C265.738 274.505 266.122 274.086 266.446 273.613C266.573 273.427 266.629 273.225 266.574 273.087C266.493 272.881 266.199 272.896 265.917 273.12C265.468 273.477 265.077 273.889 264.681 274.296C264.303 274.719 263.92 275.138 263.595 275.611C263.468 275.797 263.412 276 263.467 276.138Z" fill="white"/>
<path d="M267.556 272.424C267.723 272.369 267.832 272.259 267.947 272.155C268.044 272.034 268.145 271.917 268.188 271.746C268.189 271.742 268.191 271.735 268.191 271.732C268.283 271.341 268.045 271.126 267.659 271.253C267.492 271.308 267.382 271.418 267.268 271.522C267.171 271.643 267.07 271.76 267.027 271.931C267.026 271.936 267.024 271.944 267.023 271.949C266.933 272.338 267.171 272.551 267.556 272.424Z" fill="white"/>
<path d="M282.955 255.892C286.664 252.028 290.349 248.141 294.011 244.232L294.015 244.227C294.326 243.893 294.424 243.481 294.236 243.308C294.048 243.135 293.643 243.265 293.333 243.6C289.689 247.525 286.069 251.473 282.474 255.443C282.266 255.673 282.196 255.954 282.319 256.08C282.445 256.21 282.73 256.126 282.955 255.892Z" fill="white"/>
<path d="M280.999 258.037C281.167 257.982 281.276 257.872 281.39 257.768C281.486 257.647 281.588 257.53 281.631 257.359C281.632 257.354 281.634 257.346 281.635 257.341C281.726 256.951 281.487 256.738 281.102 256.866C280.935 256.921 280.826 257.031 280.711 257.135C280.614 257.256 280.513 257.373 280.47 257.544C280.469 257.548 280.467 257.555 280.467 257.558C280.375 257.949 280.613 258.163 280.999 258.037Z" fill="white"/>
<path d="M278.955 260.229C279.123 260.174 279.232 260.064 279.346 259.96C279.442 259.839 279.544 259.722 279.587 259.551C279.588 259.546 279.59 259.538 279.591 259.533C279.682 259.143 279.443 258.93 279.058 259.058C278.891 259.113 278.781 259.223 278.667 259.327C278.57 259.448 278.469 259.565 278.426 259.736C278.425 259.74 278.423 259.747 278.423 259.75C278.331 260.141 278.569 260.355 278.955 260.229Z" fill="white"/>
<path d="M276.911 262.421C277.079 262.366 277.188 262.257 277.302 262.152C277.398 262.031 277.5 261.914 277.543 261.743C277.544 261.738 277.546 261.73 277.547 261.725C277.638 261.335 277.399 261.122 277.014 261.25C276.847 261.305 276.737 261.415 276.623 261.519C276.526 261.64 276.425 261.757 276.382 261.928C276.381 261.932 276.379 261.939 276.379 261.942C276.287 262.333 276.525 262.547 276.911 262.421Z" fill="white"/>
<path d="M269.896 269.943C270.812 269.086 271.669 268.173 272.532 267.266C273.377 266.342 274.226 265.423 275.018 264.45C275.201 264.225 275.271 263.961 275.172 263.819C275.055 263.651 274.75 263.714 274.49 263.957C273.575 264.815 272.717 265.727 271.854 266.634C271.009 267.558 270.159 268.477 269.368 269.45C269.185 269.675 269.115 269.938 269.214 270.081C269.331 270.248 269.636 270.187 269.896 269.943Z" fill="white"/>
<path d="M295.419 275.724C295.85 275.385 296.224 274.993 296.602 274.605C296.963 274.2 297.329 273.801 297.636 273.346C297.756 273.168 297.806 272.971 297.75 272.836C297.666 272.634 297.378 272.642 297.108 272.854C296.676 273.192 296.303 273.585 295.925 273.974C295.564 274.379 295.199 274.779 294.891 275.233C294.77 275.412 294.72 275.609 294.777 275.745C294.861 275.945 295.149 275.936 295.419 275.724Z" fill="white"/>
<path d="M298.697 272.21C298.859 272.16 298.964 272.056 299.073 271.956C299.165 271.84 299.262 271.729 299.3 271.563C299.301 271.559 299.302 271.553 299.303 271.549C299.384 271.169 299.146 270.955 298.771 271.07C298.608 271.12 298.504 271.224 298.394 271.324C298.302 271.44 298.206 271.552 298.167 271.717C298.166 271.722 298.164 271.73 298.163 271.734C298.084 272.113 298.323 272.326 298.697 272.21Z" fill="white"/>
<path d="M313.399 256.425C316.943 252.738 320.463 249.028 323.96 245.296L323.964 245.292C324.26 244.973 324.348 244.573 324.159 244.4C323.971 244.227 323.578 244.345 323.281 244.664C319.802 248.412 316.347 252.183 312.917 255.976C312.719 256.196 312.656 256.469 312.779 256.594C312.907 256.724 313.184 256.648 313.399 256.425Z" fill="white"/>
<path d="M311.532 258.474C311.695 258.424 311.799 258.32 311.909 258.22C312.001 258.104 312.097 257.992 312.136 257.827C312.137 257.822 312.139 257.814 312.14 257.81C312.22 257.432 311.981 257.219 311.607 257.334C311.445 257.384 311.34 257.488 311.231 257.588C311.139 257.704 311.042 257.815 311.004 257.981C311.003 257.984 311.002 257.991 311.001 257.995C310.92 258.374 311.158 258.589 311.532 258.474Z" fill="white"/>
<path d="M309.581 260.567C309.744 260.517 309.848 260.413 309.957 260.313C310.049 260.197 310.145 260.085 310.184 259.92C310.185 259.915 310.187 259.907 310.188 259.903C310.268 259.525 310.029 259.312 309.655 259.427C309.493 259.477 309.388 259.582 309.279 259.681C309.187 259.797 309.09 259.909 309.052 260.074C309.051 260.077 309.05 260.084 309.049 260.088C308.968 260.467 309.206 260.682 309.581 260.567Z" fill="white"/>
<path d="M307.629 262.66C307.792 262.61 307.896 262.506 308.005 262.406C308.097 262.29 308.193 262.178 308.232 262.013C308.233 262.008 308.235 262 308.236 261.996C308.316 261.618 308.077 261.405 307.703 261.52C307.541 261.57 307.436 261.674 307.327 261.774C307.235 261.89 307.138 262.001 307.1 262.167C307.099 262.171 307.098 262.177 307.097 262.181C307.016 262.56 307.254 262.775 307.629 262.66Z" fill="white"/>
<path d="M300.932 269.842C301.809 269.026 302.628 268.155 303.452 267.289C304.258 266.407 305.069 265.529 305.823 264.597C305.997 264.381 306.06 264.126 305.959 263.984C305.841 263.818 305.543 263.872 305.294 264.104C304.417 264.92 303.598 265.791 302.774 266.657C301.968 267.539 301.156 268.417 300.403 269.349C300.229 269.565 300.166 269.82 300.267 269.961C300.385 270.127 300.682 270.074 300.932 269.842Z" fill="white"/>
<path d="M258.948 315.147L262.571 302.328H300.977L303.07 315.147H258.948Z" fill="#FF8976"/>
<path d="M248.964 335.902C253.436 335.902 257.061 332.277 257.061 327.805C257.061 323.333 253.436 319.708 248.964 319.708C244.492 319.708 240.867 323.333 240.867 327.805C240.867 332.277 244.492 335.902 248.964 335.902Z" fill="#000000"/>
<path d="M253.833 327.805C253.833 330.494 251.653 332.674 248.964 332.674C246.275 332.674 244.095 330.494 244.095 327.805C244.095 325.116 246.275 322.936 248.964 322.936C251.653 322.937 253.833 325.116 253.833 327.805Z" fill="#3E2344"/>
<path d="M245.763 326.919L248.539 319.596C248.688 319.204 249.064 318.944 249.483 318.944H259.139C260.02 318.944 260.479 319.994 259.88 320.64L251.185 330.024C250.461 330.805 249.348 331.094 248.335 330.763L247.466 330.479C245.987 329.997 245.211 328.375 245.763 326.919Z" fill="#FFDCAE"/>
<path d="M250.83 327.805C250.83 328.835 249.995 329.67 248.965 329.67C247.935 329.67 247.1 328.835 247.1 327.805C247.1 326.775 247.935 325.94 248.965 325.94C249.995 325.941 250.83 326.776 250.83 327.805Z" fill="#000000"/>
<path d="M310.824 335.902C315.295 335.902 318.921 332.277 318.921 327.805C318.921 323.333 315.295 319.708 310.824 319.708C306.352 319.708 302.727 323.333 302.727 327.805C302.727 332.277 306.352 335.902 310.824 335.902Z" fill="#000000"/>
<path d="M305.955 327.805C305.955 330.494 308.135 332.674 310.824 332.674C313.513 332.674 315.693 330.494 315.693 327.805C315.693 325.116 313.513 322.936 310.824 322.936C308.135 322.937 305.955 325.116 305.955 327.805Z" fill="#3E2344"/>
<path d="M314.025 326.919L311.249 319.596C311.1 319.204 310.724 318.944 310.305 318.944H300.649C299.768 318.944 299.309 319.994 299.908 320.64L308.603 330.024C309.327 330.805 310.44 331.094 311.452 330.763L312.322 330.479C313.801 329.997 314.577 328.375 314.025 326.919Z" fill="#FFDCAE"/>
<path d="M308.959 327.805C308.959 328.835 309.794 329.67 310.824 329.67C311.854 329.67 312.689 328.835 312.689 327.805C312.689 326.775 311.854 325.94 310.824 325.94C309.794 325.941 308.959 326.776 308.959 327.805Z" fill="#000000"/>
<path d="M349.971 246.448C352.278 236.596 346.161 226.739 336.309 224.432C326.456 222.125 316.599 228.242 314.292 238.094C311.985 247.946 318.102 257.803 327.954 260.11C337.807 262.417 347.664 256.301 349.971 246.448Z" fill="#FFD25A"/>
<path d="M335.509 232.514V248.676H338.579C339.182 248.676 339.441 249.106 339.441 250.111V250.599C339.441 251.603 339.182 252.034 338.579 252.034H327.441C326.838 252.034 326.581 251.603 326.581 250.599V250.111C326.581 249.106 326.838 248.676 327.441 248.676H331.26V235.787L327.355 236.361C326.608 236.361 326.437 234.754 326.437 233.95C326.437 233.519 326.695 233.232 327.183 233.146L334.331 231.826C334.792 231.825 335.509 232.169 335.509 232.514Z" fill="#000000"/>
<path d="M258.708 228.48V242.912L292.789 243.8V227.002L258.708 228.48Z" fill="#FFBE57"/>
<path d="M292.789 227.002V243.8L309.032 244.319V229.938L292.789 227.002Z" fill="#F99441"/>
<path d="M257.713 225.749L293.582 224.286V228.976L257.713 230.469V225.749Z" fill="#FFD25A"/>
<path d="M293.582 228.976L310.213 231.825V227.377L293.582 224.286V228.976Z" fill="#FFBE57"/>
<path opacity="0.2" d="M179.929 330.506C207.151 330.506 229.219 329.236 229.219 327.67C229.219 326.104 207.151 324.834 179.929 324.834C152.707 324.834 130.639 326.104 130.639 327.67C130.639 329.236 152.707 330.506 179.929 330.506Z" fill="#000000"/>
<path d="M203.732 295.13C204.528 303.053 211.187 314.645 213.772 321.111C214.533 323.015 218.138 321.951 217.731 319.941C216.343 313.093 215.39 299.226 214.756 292.153C214.009 283.825 202.974 287.589 203.732 295.13Z" fill="#FFB072"/>
<path d="M213.871 321.082C213.871 321.082 213.101 323.257 214.414 326.192C214.176 326.299 214.356 327.275 214.784 327.482C215.289 327.726 218.942 327.666 219.684 327.087C219.847 326.81 219.659 326.431 219.659 326.431C219.659 326.431 220.573 326.778 223.172 326.287C225.771 325.796 227.165 325.044 228.175 324.404C228.481 324.21 228.269 323.517 227.924 323.629C227.924 323.629 227.701 321.825 226.192 321.923C223.1 322.123 220.884 320.864 219.302 319.909C218.519 319.436 217.731 319.041 217.246 319.016C216.002 318.948 214.385 319.681 213.871 321.082Z" fill="#ED0C37"/>
<mask id="mask0_734_9" style="mask-type:luminance" maskUnits="userSpaceOnUse" x="213" y="319" width="16" height="9">
<path d="M213.871 321.082C213.871 321.082 213.101 323.257 214.414 326.192C214.176 326.299 214.356 327.275 214.784 327.482C215.289 327.726 218.942 327.666 219.684 327.087C219.847 326.81 219.659 326.431 219.659 326.431C219.659 326.431 220.573 326.778 223.172 326.287C225.771 325.796 227.165 325.044 228.175 324.404C228.481 324.21 228.269 323.517 227.924 323.629C227.924 323.629 227.701 321.825 226.192 321.923C223.1 322.123 220.884 320.864 219.302 319.909C218.519 319.436 217.731 319.041 217.246 319.016C216.002 318.948 214.385 319.681 213.871 321.082Z" fill="white"/>
</mask>
<g mask="url(#mask0_734_9)">
<path d="M214.414 326.192C216.609 326.444 219.671 326.11 219.671 326.11C219.671 326.11 225.593 326.007 227.925 323.629C230.257 321.251 232.274 323.784 232.274 323.784L222.581 331.503L216.25 331.008L213.422 328.622C213.422 328.622 213.188 326.051 214.414 326.192Z" fill="#FFAEC1"/>
</g>
<mask id="mask1_734_9" style="mask-type:luminance" maskUnits="userSpaceOnUse" x="213" y="319" width="16" height="9">
<path d="M213.871 321.082C213.871 321.082 213.101 323.257 214.414 326.192C214.176 326.299 214.356 327.275 214.784 327.482C215.289 327.726 218.942 327.666 219.684 327.087C219.847 326.81 219.659 326.431 219.659 326.431C219.659 326.431 220.573 326.778 223.172 326.287C225.771 325.796 227.165 325.044 228.175 324.404C228.481 324.21 228.269 323.517 227.924 323.629C227.924 323.629 227.701 321.825 226.192 321.923C223.1 322.123 220.884 320.864 219.302 319.909C218.519 319.436 217.731 319.041 217.246 319.016C216.002 318.948 214.385 319.681 213.871 321.082Z" fill="white"/>
</mask>
<g mask="url(#mask1_734_9)">
<path d="M213.404 321.254C213.404 321.254 214.254 322.735 215.997 322.365C217.74 321.996 217.917 320.925 217.522 319.061C217.127 317.197 211.573 318.428 213.404 321.254Z" fill="#FFB072"/>
</g>
<path d="M177.812 238.431C177.812 238.431 189.201 258.918 192.964 267.291C196.727 275.664 201.486 296.341 201.486 296.341C201.486 296.341 210.85 298.311 215.757 293.918C215.757 293.918 214.185 272.101 211.512 262.303C208.84 252.505 198.685 228.454 198.685 228.454C194.607 219.82 173.734 229.797 177.812 238.431Z" fill="#424242"/>
<path d="M187.13 254.458C187.262 254.326 188.04 250.721 190.347 246.685C192.355 243.172 197.202 240.414 197.734 240.842C198.649 241.578 191.416 246.949 190.016 250.827C190.016 250.827 198.067 244.97 198.627 245.742C199.15 246.464 190.298 251.296 187.13 254.458Z" fill="#3E2344"/>
<path d="M185.928 187.932C187.808 196.592 190.724 208.13 197.151 213.763C203.578 219.396 217.532 222.522 218.196 222.522C219.75 222.88 221.415 214.678 220.184 213.73C218.952 212.782 207.976 208.35 206.027 206.471C202.544 203.112 204.028 182.654 200.084 178.19C196.14 173.726 183.737 177.839 185.928 187.932Z" fill="#DD4026"/>
<path d="M221.007 215.208C221.007 215.208 225.899 219.273 226.19 220.38C226.481 221.487 226.363 223.311 225.963 223.774C225.563 224.237 222.574 225.734 221.433 224.95C220.291 224.166 218.718 222.378 218.718 222.378L219.257 220.378C219.257 220.378 218.889 221.749 215.926 219.89C212.962 218.032 218.192 212.399 221.007 215.208Z" fill="#F29353"/>
<path d="M152.833 289.249C146.932 294.597 141.563 306.839 137.897 312.759C136.817 314.503 139.815 316.77 141.19 315.248C145.874 310.064 156.463 301.059 161.777 296.347C168.032 290.801 158.449 284.16 152.833 289.249Z" fill="#FFB072"/>
<path d="M138.557 312.163C138.557 312.163 136.313 312.703 134.569 315.404C134.35 315.263 133.629 315.946 133.689 316.418C133.76 316.975 135.802 320.005 136.692 320.311C137.013 320.296 137.228 319.933 137.228 319.933C137.228 319.933 137.436 320.889 139.264 322.8C141.092 324.711 142.483 325.469 143.57 325.967C143.899 326.118 144.365 325.562 144.083 325.334C144.083 325.334 145.474 324.164 144.569 322.952C142.716 320.469 142.563 317.925 142.502 316.077C142.472 315.163 142.373 314.287 142.13 313.867C141.507 312.786 140.012 311.831 138.557 312.163Z" fill="#ED0C37"/>
<mask id="mask2_734_9" style="mask-type:luminance" maskUnits="userSpaceOnUse" x="133" y="312" width="12" height="14">
<path d="M138.557 312.163C138.557 312.163 136.313 312.703 134.569 315.404C134.35 315.263 133.629 315.946 133.689 316.418C133.76 316.975 135.802 320.005 136.692 320.311C137.013 320.296 137.228 319.933 137.228 319.933C137.228 319.933 137.436 320.889 139.264 322.8C141.092 324.711 142.483 325.469 143.57 325.967C143.899 326.118 144.365 325.562 144.083 325.334C144.083 325.334 145.474 324.164 144.569 322.952C142.716 320.469 142.563 317.925 142.502 316.077C142.472 315.163 142.373 314.287 142.13 313.867C141.507 312.786 140.012 311.831 138.557 312.163Z" fill="white"/>
</mask>
<g mask="url(#mask2_734_9)">
<path d="M134.569 315.404C135.554 317.381 137.504 319.766 137.504 319.766C137.504 319.766 140.819 324.675 144.083 325.334C147.347 325.993 146.324 329.064 146.324 329.064L134.569 325.146L131.533 319.568L131.992 315.897C131.992 315.897 134.019 314.299 134.569 315.404Z" fill="#FFAEC1"/>
</g>
<mask id="mask3_734_9" style="mask-type:luminance" maskUnits="userSpaceOnUse" x="133" y="312" width="12" height="14">
<path d="M138.557 312.163C138.557 312.163 136.313 312.703 134.569 315.404C134.35 315.263 133.629 315.946 133.689 316.418C133.76 316.975 135.802 320.005 136.692 320.311C137.013 320.296 137.228 319.933 137.228 319.933C137.228 319.933 137.436 320.889 139.264 322.8C141.092 324.711 142.483 325.469 143.57 325.967C143.899 326.118 144.365 325.562 144.083 325.334C144.083 325.334 145.474 324.164 144.569 322.952C142.716 320.469 142.563 317.925 142.502 316.077C142.472 315.163 142.373 314.287 142.13 313.867C141.507 312.786 140.012 311.831 138.557 312.163Z" fill="white"/>
</mask>
<g mask="url(#mask3_734_9)">
<path d="M138.159 311.866C138.159 311.866 137.381 313.385 138.641 314.645C139.901 315.905 140.895 315.469 142.242 314.122C143.589 312.776 139.53 308.79 138.159 311.866Z" fill="#FFB072"/>
</g>
<path d="M165.751 230.746C165.751 230.746 167.329 260.787 163.957 268.654C160.585 276.521 151.824 289.328 151.824 289.328C151.824 289.328 154.227 296.783 163.111 297.852C163.111 297.852 176.507 288.417 181.763 274.127C187.019 259.837 191.425 244.109 189.297 232.457C188.101 225.913 167.442 221.174 165.751 230.746Z" fill="#000000"/>
<path d="M169.666 230.469C169.666 230.469 169.857 255.483 168.69 265.162C167.557 274.555 153.121 291.842 153.121 291.842" stroke="white" stroke-width="0.4986" stroke-miterlimit="10"/>
<path d="M199.38 178.875C201.694 183.479 197.565 200.957 197.565 208.591C197.565 214.8 198.584 225.182 199.504 229.1C199.749 230.144 199.283 231.216 198.359 231.76C194.788 233.861 190.032 234.965 187.098 235.247C175.791 236.335 170.329 234.354 167.759 233.38C166.372 232.854 165.541 231.444 165.76 229.977C166.331 226.159 167.941 216.819 166.562 208.227C164.757 196.983 161.813 181.69 167.087 176.971C172.362 172.252 182.239 169.313 182.239 169.313C182.239 169.313 196.521 173.189 199.38 178.875Z" fill="white"/>
<path d="M184.628 164.527C184.628 164.527 182.092 164.104 178.613 159.782C176.333 156.949 173.161 144.13 183.216 142.19C193.27 140.25 196.231 147.046 196.69 151.49C197.149 155.934 192.162 159.596 189.904 161.2C187.647 162.803 184.628 164.527 184.628 164.527Z" fill="#3E2344"/>
<path d="M182.178 159.363C182.178 159.363 181.872 163.246 180.726 166.275C179.58 169.304 178.351 170.235 176.904 171.522C175.457 172.809 182.681 180.482 189.112 182.428C189.112 182.428 193.776 176.746 191.637 173.579C189.498 170.412 187.804 170.133 188.57 165.904C189.238 162.218 189.636 160.174 189.636 160.174L182.178 159.363Z" fill="#FFB072"/>
<path fill-rule="evenodd" clip-rule="evenodd" d="M182.177 159.363C182.177 159.363 181.853 162.233 183.01 163.464C184.167 164.694 186.238 167.665 190.959 167.32C197.265 166.859 194.816 156.851 194.816 156.851C194.816 156.851 195.474 153.001 194.815 149.839C194.156 146.676 187.912 145.02 182.828 146.568C182.828 146.568 181.368 147.957 181.928 154.172C181.928 154.172 180.99 153.044 179.515 153.847C178.396 154.457 178.278 155.901 178.658 157.262C179.113 158.896 180.816 160.303 182.177 159.363Z" fill="#FFB072"/>
<path d="M181.652 158.762L181.097 157.285L182.044 156.892C182.044 156.892 181.429 154.131 179.89 155.149C178.625 155.986 180.071 159.324 181.652 158.762Z" fill="#E57E55"/>
<path d="M182.321 156.563C182.321 156.563 181.7 160.445 181.794 162.177C181.888 163.909 183.596 169.301 191.493 168.82C199.336 168.342 196.527 159.842 195.199 159.259C195.249 159.825 194.968 160.735 194.417 161.134C194.099 160.34 193.173 159.774 191.888 160.045C190.765 159.41 189.477 159.804 188.122 160.612L187.146 161.296C184.705 160.694 183.44 159.09 183.132 156.668L182.321 156.563Z" fill="#3E2344"/>
<path d="M189.113 161.444C189.113 161.444 193.259 161.444 193.358 161.726C193.457 162.008 192.865 162.571 191.236 162.571C189.606 162.571 189.113 161.444 189.113 161.444Z" fill="white"/>
<path d="M188.998 161.368C189.216 161.251 189.196 161.333 189.259 161.31L189.404 161.315L189.694 161.326L190.274 161.352L191.435 161.397C191.822 161.417 192.209 161.439 192.596 161.479C192.79 161.5 192.983 161.523 193.179 161.567C193.231 161.584 193.277 161.593 193.333 161.619C193.415 161.665 193.447 161.737 193.435 161.8C193.425 161.928 193.353 162.02 193.282 162.095C192.635 162.629 191.792 162.653 191.021 162.652C190.625 162.633 190.224 162.539 189.869 162.343C189.69 162.249 189.52 162.134 189.371 161.993C189.297 161.922 189.226 161.848 189.162 161.767L189.07 161.641L189.027 161.574L189.007 161.539L188.997 161.521C188.999 161.544 188.957 161.406 188.998 161.368ZM189.229 161.519C189.276 161.492 189.238 161.365 189.245 161.399L189.252 161.413L189.266 161.441L189.298 161.498L189.37 161.611C189.422 161.685 189.48 161.754 189.542 161.821C189.666 161.954 189.813 162.067 189.971 162.162C190.29 162.349 190.66 162.444 191.034 162.47C191.77 162.493 192.616 162.463 193.19 162C193.563 161.632 192.91 161.694 192.584 161.633C192.201 161.601 191.815 161.588 191.43 161.576L190.272 161.557L189.693 161.566L189.404 161.572L189.259 161.576C189.224 161.555 189.108 161.636 189.229 161.519Z" fill="#E57E55"/>
<path d="M189.654 156.322C189.625 156.672 189.165 156.697 188.605 156.65C188.044 156.603 187.595 156.502 187.625 156.152C187.654 155.802 188.132 155.556 188.693 155.603C189.253 155.65 189.684 155.972 189.654 156.322Z" fill="#3E2344"/>
<path d="M185.943 154.65C185.926 154.702 187.539 154.144 188.05 154.15C188.561 154.156 190.491 154.464 190.653 154.276C190.815 154.088 190.942 153.441 190.942 153.441C190.942 153.441 188.313 153.184 187.772 153.322C187.23 153.46 186.09 154.205 185.943 154.65Z" fill="#3E2344"/>
<path d="M194.792 156.752C194.763 157.102 194.303 157.127 193.743 157.08C193.182 157.033 192.733 156.932 192.763 156.582C192.792 156.232 193.27 155.986 193.831 156.033C194.39 156.08 194.821 156.402 194.792 156.752Z" fill="#3E2344"/>
<path d="M195.507 155.45C195.511 155.504 194.815 154.617 194.467 154.551C194.119 154.485 192.446 154.627 192.363 154.419C192.279 154.211 192.284 153.553 192.284 153.553C192.284 153.553 194.518 153.722 194.866 153.933C195.215 154.146 195.47 154.99 195.507 155.45Z" fill="#3E2344"/>
<path opacity="0.5" d="M191.906 159.744C191.906 159.744 190.61 159.701 190.64 159.346C190.67 158.991 193.382 158.601 193.532 158.857C193.681 159.112 192.489 159.581 191.906 159.744Z" fill="#E57E55"/>
<path d="M192.13 154.354C192.13 154.354 191.751 155.978 191.945 156.563C192.14 157.148 193.329 158.466 193.355 158.744C193.38 159.022 192.007 159.703 191.907 159.744C191.806 159.784 193.863 159.469 193.803 158.83C193.743 158.191 192.213 156.588 192.158 156.275C192.103 155.962 192.13 154.354 192.13 154.354Z" fill="#E57E55"/>
<path d="M182.885 157.04C183.288 156.768 183.949 154.424 183.246 152.169C182.616 150.149 184.211 148.655 185.333 148.532C186.619 148.391 190.789 149.575 192.438 149.372C196.053 148.928 198.853 147.862 198.847 147.194C198.841 146.526 196.195 147.219 196.195 147.219C196.195 147.219 200.225 146.191 199.86 142.819C199.86 142.819 196.83 143.042 194.124 142.115C191.418 141.188 184.939 140.112 181.494 142.67C179.239 144.345 177.638 149.803 180.625 152.578C181.987 153.843 182.115 157.561 182.885 157.04Z" fill="#3E2344"/>
<path opacity="0.7" fill-rule="evenodd" clip-rule="evenodd" d="M192.284 178.951C192.284 178.951 190.562 213.159 190.941 216.379C191.32 219.599 190.694 231.961 198.503 234.339C198.503 234.339 195.013 216.494 195.507 205.773C196.001 195.052 192.284 178.951 192.284 178.951Z" fill="#A1ABAD"/>
<path d="M189.79 171.208C189.79 171.208 193.149 181.92 192.963 195.885C192.776 209.849 192.21 238.494 202.544 237.829C202.544 237.829 198.188 220.232 198.454 213.839C198.72 207.446 202.181 183.952 200.909 179.926C199.068 174.094 189.79 171.208 189.79 171.208Z" fill="#FD6141"/>
<path d="M177.929 170.704C177.929 170.704 184.897 181.607 187.13 200.086C188.194 208.895 187.001 222.855 185.671 231.769C184.14 242.031 164.052 242.015 162.764 239.324C161.476 236.634 167.229 219.588 165.435 209.903C163.641 200.218 162.583 184.405 164.724 179.203C166.865 174.003 177.929 170.704 177.929 170.704Z" fill="#FD6141"/>
<path d="M167.852 189.221C167.852 189.221 171.271 205.709 170.834 214.437C170.397 223.165 167.616 240.798 167.616 240.798" stroke="white" stroke-width="0.4986" stroke-miterlimit="10" stroke-linecap="round" stroke-linejoin="round"/>
<path d="M165.445 180.53C165.016 181.573 164.721 183.062 164.536 184.842C166.419 199.223 174.508 215.34 186.931 221.126C187.341 216.455 187.588 211.523 187.521 207.098C179.198 198.808 172.833 188.032 167.96 177.409C166.829 178.344 165.915 179.389 165.445 180.53Z" fill="#DD4026"/>
<path d="M214.102 218.079C214.102 218.079 220.295 219.528 221.05 220.388C221.805 221.248 223.072 224.192 222.921 224.785C222.771 225.378 219.496 226.671 218.124 226.48C216.752 226.289 215.259 225.516 215.259 225.516C215.464 224.786 215.409 224.13 214.648 223.893C213.844 223.643 212.99 224.077 211.589 224.708C208.4 226.143 210.328 216.825 214.102 218.079Z" fill="#FFB072"/>
<path d="M164.444 188.105C166.109 197.333 177.911 211.099 182.962 215.432C187.389 219.23 209.25 225.677 210.215 225.728C212.455 226.205 215.305 218.141 213.565 217.1C211.825 216.059 192.34 207.092 190.229 204.747C188.119 202.401 180.381 181.561 174.885 176.802C169.388 172.043 162.564 177.689 164.444 188.105Z" fill="#FF8976"/>
<path fill-rule="evenodd" clip-rule="evenodd" d="M520.086 173.264C529.045 160.351 538.288 163.153 541.684 168.596C545.08 174.039 542.63 182.124 535.558 188.808C530.485 193.891 520.329 197.434 512.172 199.375C506.465 193.232 499.985 184.647 498.588 177.603C496.417 168.118 498.868 160.033 504.714 157.391C510.561 154.749 519.803 157.55 520.086 173.264Z" fill="#FD6141"/>
<g opacity="0.5">
<path fill-rule="evenodd" clip-rule="evenodd" d="M541.684 168.596C538.784 163.948 531.62 161.235 524.01 168.58C530.491 163.47 539.782 163.372 540.594 172.719C541.447 182.533 533.581 189.24 524.523 187.526C512.635 185.277 515.558 175.307 509.91 170.428C505.493 166.714 500.255 172.329 500.021 176.932C499.915 179.02 500.136 181.111 500.489 183.093C503.167 188.773 507.887 194.761 512.171 199.374C520.328 197.433 530.484 193.89 535.557 188.807C542.63 182.124 545.08 174.039 541.684 168.596Z" fill="#DD4026"/>
</g>
<path opacity="0.2" d="M410.474 329.515C437.696 329.515 459.764 328.245 459.764 326.679C459.764 325.112 437.696 323.843 410.474 323.843C383.251 323.843 361.184 325.112 361.184 326.679C361.184 328.245 383.251 329.515 410.474 329.515Z" fill="#000000"/>
<path d="M419.551 315.576C419.551 315.576 421.596 317.367 421.939 317.874C422.278 318.374 423.595 322.097 423.595 322.097C423.312 322.633 422.396 323.415 421.537 323.519L419.879 321.385C419.879 321.385 419.031 325.116 418.174 326.327C417.139 327.791 411.203 329.48 410.316 329.035C410.316 329.035 409.225 326.861 411.085 325.668C414.52 323.466 414.603 318.847 414.603 318.847C414.097 316.125 417.079 314.052 419.551 315.576Z" fill="#FD6141"/>
<mask id="mask4_734_9" style="mask-type:luminance" maskUnits="userSpaceOnUse" x="409" y="315" width="15" height="15">
<path d="M419.551 315.576C419.551 315.576 421.596 317.367 421.939 317.874C422.278 318.374 423.595 322.097 423.595 322.097C423.312 322.633 422.396 323.415 421.537 323.519L419.879 321.385C419.879 321.385 419.031 325.116 418.174 326.327C417.139 327.791 411.203 329.48 410.316 329.035C410.316 329.035 409.225 326.861 411.085 325.668C414.52 323.466 414.603 318.847 414.603 318.847C414.097 316.125 417.079 314.052 419.551 315.576Z" fill="white"/>
</mask>
<g mask="url(#mask4_734_9)">
<path d="M409.617 328.707C409.722 328.653 417.212 327.644 418.097 325.434C418.79 323.704 419.25 320.789 419.651 320.447C420.052 320.106 421.939 317.874 421.939 317.874L424.936 323.092L413.659 332.582L409.617 328.707Z" fill="#DD4026"/>
</g>
<path d="M413.211 323.726L414.234 323.944C414.234 323.944 414.959 322.948 414.893 322.051L413.894 321.702C413.713 321.639 413.515 321.732 413.449 321.912L412.954 323.262C412.881 323.462 413.002 323.681 413.211 323.726Z" fill="#F7B614"/>
<path d="M406.39 212.251C406.365 211.893 396.883 254.118 397.223 265.471C397.435 272.544 410.657 305.094 414.604 318.847C415.361 321.485 419.465 318.389 419.143 315.651C417.596 302.484 417.693 295.557 411.881 266.945C410.976 262.489 426.967 222.548 425.701 213.191C424.437 203.833 411.385 198.74 406.39 212.251Z" fill="#FFB072"/>
<path opacity="0.5" d="M425.702 213.191C424.437 203.834 411.385 198.741 406.39 212.251C406.367 211.911 397.784 250.108 397.241 263.601C401.506 260.364 407.175 262.069 412.078 264.646C413.965 254.904 426.843 221.626 425.702 213.191Z" fill="#FFBE57"/>
<path d="M433.176 318.322C433.176 318.322 434.451 320.723 434.591 321.319C434.729 321.907 434.637 325.854 434.637 325.854C434.182 326.255 433.048 326.659 432.208 326.451L431.416 323.867C431.416 323.867 430.195 326.39 428.964 327.218C427.476 328.218 422.176 329.445 421.285 329.007C421.285 329.007 420.062 326.643 422.028 325.634C426.951 323.109 427.387 319.62 427.387 319.62C427.883 316.897 431.407 316.019 433.176 318.322Z" fill="#FD6141"/>
<mask id="mask5_734_9" style="mask-type:luminance" maskUnits="userSpaceOnUse" x="420" y="316" width="15" height="14">
<path d="M433.176 318.322C433.176 318.322 434.451 320.723 434.591 321.319C434.729 321.907 434.637 325.854 434.637 325.854C434.182 326.255 433.048 326.659 432.208 326.451L431.416 323.867C431.416 323.867 430.195 326.39 428.964 327.218C427.476 328.218 422.176 329.445 421.285 329.007C421.285 329.007 420.062 326.643 422.028 325.634C426.951 323.109 427.387 319.62 427.387 319.62C427.883 316.897 431.407 316.019 433.176 318.322Z" fill="white"/>
</mask>
<g mask="url(#mask5_734_9)">
<path d="M420.681 328.773C420.799 328.759 426.855 328.182 428.312 327.02C429.769 325.858 431.04 323.088 431.537 322.911C432.033 322.734 434.59 321.319 434.59 321.319L435.536 327.262L421.622 332.124L420.681 328.773Z" fill="#DD4026"/>
</g>
<path d="M424.594 324.048L425.473 324.615C425.473 324.615 426.505 323.941 426.762 323.08L425.953 322.398C425.806 322.274 425.588 322.292 425.462 322.437L424.519 323.523C424.379 323.685 424.414 323.933 424.594 324.048Z" fill="#F7B614"/>
<path d="M415.752 214.974C415.678 218.649 416.242 257.852 419.638 268.583C421.753 275.268 426.194 307.365 427.699 318.331C428.248 322.332 432.589 322.332 432.904 318.51C434.075 304.308 438.667 284.557 433.455 267.203C432.153 262.867 438.188 218.111 434.449 209.587C430.709 201.063 416.027 201.383 415.752 214.974Z" fill="#FFB072"/>
<path opacity="0.5" d="M433.271 264.299C433.391 253.227 437.767 217.15 434.449 209.588C430.709 201.064 416.027 201.384 415.752 214.974C415.684 218.357 416.159 251.831 418.883 265.502C423.124 263.107 428.483 262.907 433.271 264.299Z" fill="#FFBE57"/>
<path d="M406.81 207.656L406.389 211.509C406.389 211.509 399.494 228.989 396.522 257.363C403.877 255.321 417.765 262.118 438.365 259.225C438.365 259.225 446.514 222.89 432.339 206.725C418.164 190.561 407.556 199.101 406.81 207.656Z" fill="#FD6141"/>
<path d="M406.835 211.363C406.835 211.363 406.286 216.803 415.701 217.763C425.116 218.723 434.452 211.923 434.217 209.923C433.981 207.922 406.835 211.363 406.835 211.363Z" fill="#DD4026"/>
<path d="M430.073 208.667C430.073 208.667 440.853 226.602 434.221 258.606" stroke="white" stroke-width="0.4986" stroke-miterlimit="10" stroke-linecap="round"/>
<path d="M368.493 197.396C368.421 197.387 364.514 197.157 363.838 197.341C363.211 197.512 361.614 198.286 361.149 198.519C360.07 199.061 361.122 199.835 361.939 199.764C363.098 199.663 363.523 199.454 364.005 199.528C364.273 199.569 364.499 199.634 364.707 199.707C364.279 200.07 362.503 201.318 361.141 201.843C360.374 202.138 359.681 202.342 358.571 202.697C358.076 202.856 358.157 203.509 358.722 203.614C359.12 203.688 360.489 203.694 361.693 203.238C362.17 203.057 362.652 202.858 363.093 202.653C363.103 202.697 362.071 203.299 361.57 203.527C360.842 203.859 360.11 203.994 359.047 204.385C358.559 204.565 358.691 205.133 359.26 205.214C359.413 205.236 359.702 205.26 360.067 205.256C359.867 205.515 360.008 205.92 360.459 205.979C360.67 206.006 361.112 205.967 361.663 205.881C361.729 206.015 361.869 206.156 362.091 206.156C366.065 206.168 368.436 203.999 370.613 203.492C374.082 199.993 371.084 197.892 368.493 197.396Z" fill="#FFB072"/>
<path d="M414.721 169.077C412.02 167.545 407.41 167.041 403.777 172.216C400.143 177.392 398.543 189.568 394.69 193.688C392.393 196.145 371.537 196.855 370.053 197.6C369.087 198.085 369.663 202.725 369.98 203.587C370.643 205.39 393.222 206.353 399.364 203.933C405.506 201.512 420.52 172.367 414.721 169.077Z" fill="#424242"/>
<path d="M405.99 146.025C406.156 144.137 406.146 140.997 408.397 138.273C410.648 135.548 419.423 132.819 424.021 136.004C429.674 139.919 427.828 143.583 434.876 146.426C441.924 149.269 439.792 152.423 437.778 155.643C435.764 158.863 436.473 159.396 439.731 162.772C442.99 166.148 447.311 174.558 439.731 179.356C432.151 184.153 415.736 181.014 409.16 174.677C402.584 168.34 410.345 164.167 408.519 160.39C406.694 156.613 404.551 157.446 404.551 153.432C404.551 150.357 405.734 148.937 405.99 146.025Z" fill="#3E2344"/>
<path d="M420.211 164.584C420.211 164.584 405.259 167.077 404.76 171.64C404.551 173.552 407.156 177.408 406.484 179.367C405.501 182.23 403.934 183.892 406.824 190.689C409.16 196.184 405.15 207.556 405.272 208.91C405.727 213.971 413.752 214.898 417.044 214.818C421.737 214.705 435.233 211.686 435.233 208.729C435.233 206.166 428.983 200.658 428.377 196.264C427.771 191.87 439.205 174.262 436.936 170.428C432.543 163.005 420.211 164.584 420.211 164.584Z" fill="#000000"/>
<path d="M434.556 211.728C434.484 211.742 430.695 212.717 430.108 213.099C429.563 213.453 428.28 214.678 427.908 215.043C427.046 215.889 428.284 216.305 429.041 215.987C430.113 215.537 430.454 215.208 430.936 215.131C431.204 215.088 431.438 215.081 431.659 215.087C431.363 215.564 430.053 217.295 428.917 218.211C428.277 218.727 427.68 219.132 426.732 219.81C426.309 220.112 426.586 220.71 427.156 220.637C427.558 220.586 428.863 220.173 429.87 219.371C430.269 219.053 430.667 218.716 431.024 218.386C431.047 218.425 430.248 219.314 429.841 219.684C429.25 220.222 428.593 220.575 427.701 221.272C427.292 221.592 427.591 222.093 428.157 221.996C428.31 221.97 428.592 221.904 428.938 221.79C428.826 222.098 429.085 222.44 429.533 222.358C429.743 222.32 430.151 222.147 430.65 221.897C430.754 222.005 430.925 222.078 431.142 222.028C433.497 221.488 437.528 218.106 438.441 216.886C440.671 212.491 437.174 211.408 434.556 211.728Z" fill="#FFB072"/>
<path d="M431.291 166.751C428.875 168.702 426.716 172.806 430.199 178.084C433.682 183.362 443.601 188.85 446.022 193.945C447.465 196.983 434.065 210.014 434.04 211.675C434.015 213.335 436.561 217.382 437.537 217.855C439.266 218.693 458.09 200.421 458.09 193.819C458.089 187.217 436.479 162.563 431.291 166.751Z" fill="#000000"/>
<path d="M422.491 153.052C422.491 153.052 422.797 156.935 423.943 159.964C425.089 162.993 426.318 163.924 427.765 165.211C429.212 166.498 421.988 174.171 415.557 176.117C415.557 176.117 410.893 170.435 413.032 167.268C415.171 164.101 416.865 163.822 416.099 159.593C415.431 155.907 415.033 153.863 415.033 153.863L422.491 153.052Z" fill="#FFB072"/>
<path d="M412.555 155.017C412.555 156.833 411.809 158.311 410.892 158.311C409.975 158.311 409.229 156.833 409.229 155.017C409.229 153.788 409.575 152.726 410.08 152.16C410.236 151.958 410.037 151.804 409.881 152.006C409.338 152.624 408.979 153.725 408.979 155.017C408.979 157.004 409.819 158.56 410.891 158.56C411.963 158.56 412.803 157.004 412.803 155.017C412.803 153.976 412.642 153.182 412.268 152.54C412.228 152.588 412.124 152.67 412.08 152.72C412.386 153.318 412.555 154.102 412.555 155.017Z" fill="white"/>
<path fill-rule="evenodd" clip-rule="evenodd" d="M422.491 153.052C422.491 153.052 421.449 160.95 414.028 160.39C410.302 160.109 408.397 152.462 409.851 150.54C409.851 150.54 409.193 146.69 409.852 143.527C410.511 140.365 416.755 138.708 421.84 140.256C421.84 140.256 423.3 141.646 422.74 147.86C422.74 147.86 423.678 146.732 425.153 147.535C426.272 148.145 426.39 149.589 426.01 150.951C425.555 152.584 423.852 153.991 422.491 153.052Z" fill="#FFB072"/>
<path d="M423.017 152.451L423.572 150.974L422.625 150.582C422.625 150.582 423.24 147.821 424.779 148.839C426.044 149.674 424.597 153.012 423.017 152.451Z" fill="#E57E55"/>
<path d="M425.382 155.017C425.382 156.833 424.636 158.311 423.719 158.311C422.802 158.311 422.056 156.833 422.056 155.017C422.056 153.788 422.402 152.726 422.907 152.16C423.063 151.958 422.864 151.804 422.708 152.006C422.165 152.624 421.806 153.725 421.806 155.017C421.806 157.004 422.646 158.56 423.718 158.56C424.79 158.56 425.63 157.004 425.63 155.017C425.63 153.976 425.469 153.182 425.096 152.54C425.056 152.588 424.952 152.67 424.908 152.72C425.214 153.318 425.382 154.102 425.382 155.017Z" fill="white"/>
<path d="M412.072 155.462C412.072 155.462 412.576 154.23 416.472 154.633C416.028 156.695 412.383 157.709 412.072 155.462Z" fill="#FD6141"/>
<path d="M412.072 155.462C412.072 155.462 414.422 155.473 416.472 154.633Z" fill="#E57E55"/>
<path d="M412.072 155.462C413.567 155.257 415.017 155.027 416.472 154.633C415.813 155.009 415.072 155.217 414.331 155.363C413.584 155.482 412.825 155.554 412.072 155.462Z" fill="#E57E55"/>
<path d="M409.876 150.44C409.905 150.79 410.365 150.815 410.925 150.768C411.486 150.721 411.935 150.62 411.905 150.27C411.875 149.92 411.398 149.674 410.837 149.721C410.277 149.769 409.847 150.09 409.876 150.44Z" fill="#3E2344"/>
<path d="M408.712 148.981C408.695 149.032 410.012 147.858 410.366 147.877C410.719 147.896 412.034 148.386 412.165 148.204C412.296 148.022 412.423 147.623 412.423 147.623C412.423 147.623 410.572 147.274 410.183 147.397C409.795 147.519 408.858 148.543 408.712 148.981Z" fill="#3E2344"/>
<path d="M415.013 150.01C415.042 150.36 415.502 150.385 416.062 150.338C416.622 150.291 417.072 150.19 417.042 149.84C417.013 149.49 416.535 149.244 415.974 149.291C415.415 149.339 414.984 149.66 415.013 150.01Z" fill="#3E2344"/>
<path d="M418.342 147.78C418.37 147.826 416.598 147.1 416.157 147.212C415.717 147.325 414.3 148.04 414.113 147.892C413.926 147.744 413.714 147.38 413.714 147.38C413.714 147.38 415.784 146.678 416.287 146.698C416.79 146.719 418.102 147.381 418.342 147.78Z" fill="#3E2344"/>
<path opacity="0.5" d="M412.761 153.432C412.761 153.432 414.057 153.389 414.027 153.034C413.997 152.679 411.285 152.289 411.135 152.545C410.987 152.801 412.179 153.27 412.761 153.432Z" fill="#E57E55"/>
<path d="M412.538 148.043C412.538 148.043 412.918 149.667 412.723 150.251C412.528 150.836 411.339 152.154 411.313 152.432C411.288 152.71 412.661 153.392 412.761 153.432C412.862 153.472 410.805 153.157 410.865 152.518C410.925 151.879 412.455 150.277 412.51 149.963C412.565 149.651 412.538 148.043 412.538 148.043Z" fill="#E57E55"/>
<path d="M420.211 140.826C414.028 141.48 411.284 147.301 406.755 147.305C403.952 142.435 412.518 130.072 422.624 139.669C427.258 144.069 423.079 147.442 423.079 147.442L422.047 151C422.047 151 422.137 148.329 421.187 147.305C418.39 144.29 420.211 140.826 420.211 140.826Z" fill="#3E2344"/>
<path opacity="0.3" d="M379.753 108.044L316.211 92.406L308.175 90.428C305.047 89.658 301.887 91.57 301.117 94.698L294.805 120.345L294.446 121.805L291.559 133.534C290.789 136.662 292.701 139.822 295.829 140.592L366.268 157.928C369.396 158.698 372.556 156.786 373.326 153.658L374.169 150.233L376.572 140.468L380.076 126.23L383.164 113.682C383.78 111.184 382.253 108.659 379.753 108.044Z" fill="#000000"/>
<path d="M365.132 155.607L294.693 138.271C291.565 137.501 289.653 134.341 290.423 131.213L299.981 92.376C300.751 89.248 303.911 87.336 307.039 88.106L377.478 105.442C380.606 106.212 382.518 109.372 381.748 112.5L372.19 151.337C371.42 154.465 368.26 156.377 365.132 155.607Z" fill="#FFBE57"/>
<path d="M304.818 102.098C302.421 108.49 303.22 117.279 309.612 120.475C332.504 134.113 356.88 132.904 378.94 123.91L382.028 111.362C382.643 108.863 381.116 106.338 378.616 105.723L315.074 90.085C310.315 92.786 306.891 97.435 304.818 102.098Z" fill="#FFD25A"/>
<path d="M375.422 138.15L293.657 118.025L291.254 127.789L373.019 147.915L375.422 138.15Z" fill="#000000"/>
<path d="M329.124 104.538L304.416 98.457C303.161 98.148 302.394 96.88 302.703 95.625L302.786 95.288C303.095 94.033 304.363 93.266 305.618 93.575L330.326 99.656C331.581 99.965 332.348 101.233 332.039 102.488L331.956 102.825C331.647 104.08 330.379 104.847 329.124 104.538Z" fill="#000000"/>
<path d="M350.789 115.048L302.079 103.06C301.451 102.906 301.068 102.272 301.222 101.644L301.264 101.476C301.419 100.848 302.052 100.465 302.68 100.619L351.391 112.607C352.019 112.761 352.402 113.395 352.248 114.023L352.207 114.192C352.051 114.819 351.417 115.202 350.789 115.048Z" fill="#000000"/>
<path d="M340.804 124.312L339.216 123.921C338.333 123.704 337.794 122.812 338.011 121.93L338.069 121.693C338.286 120.811 339.178 120.271 340.06 120.488L341.648 120.879C342.531 121.096 343.07 121.988 342.853 122.87L342.795 123.107C342.578 123.99 341.687 124.529 340.804 124.312Z" fill="white"/>
<path d="M346.892 125.811L345.304 125.42C344.421 125.203 343.882 124.311 344.099 123.429L344.157 123.192C344.374 122.31 345.266 121.77 346.148 121.987L347.736 122.378C348.619 122.595 349.158 123.487 348.941 124.369L348.883 124.606C348.666 125.488 347.775 126.028 346.892 125.811Z" fill="white"/>
<path d="M352.981 127.309L351.393 126.918C350.51 126.701 349.971 125.809 350.188 124.927L350.246 124.69C350.463 123.807 351.355 123.268 352.237 123.485L353.825 123.876C354.708 124.093 355.247 124.985 355.03 125.867L354.972 126.104C354.755 126.987 353.863 127.526 352.981 127.309Z" fill="white"/>
<path d="M367.37 109.297C366.651 108.041 365.444 107.067 363.927 106.694C360.989 105.971 358.021 107.766 357.298 110.704C356.575 113.642 358.37 116.61 361.308 117.333C362.824 117.706 364.346 117.405 365.565 116.625C364.891 115.447 364.647 114.021 364.997 112.599C365.349 111.177 366.227 110.027 367.37 109.297Z" fill="#FD6141"/>
<path d="M371.626 108.589C370.11 108.216 368.588 108.517 367.369 109.297C368.043 110.475 368.287 111.901 367.937 113.323C367.587 114.745 366.709 115.895 365.566 116.625C366.284 117.881 367.492 118.855 369.009 119.228C371.947 119.951 374.915 118.156 375.638 115.218C376.361 112.28 374.564 109.312 371.626 108.589Z" fill="#FD6141"/>
</svg>
